<svg id="objects" xmlns="http://www.w3.org/2000/svg" viewBox="0 0 395 393"><defs><style>.cls-1,.cls-2{fill:#1663ca;}.cls-2{stroke:#000;stroke-linecap:round;stroke-linejoin:round;stroke-width:0;}</style></defs><title>Монтажная область 1</title><path class="cls-1" d="M93.94,144.95c5.74,0,11.53-1.3,15.7-5.53s5-10.19,3.11-15.74c0,0,.05-.07.07,0,2.87,4.73,1.07,11.34-2.33,15.28-4,4.62-10.59,6.68-16.56,6.17A.07.07,0,0,1,93.94,144.95Z"/><path class="cls-1" d="M103.31,141.68c3.35-1.24,6-2.86,7.85-6.05,0,0,.06,0,0,0-1.5,3-4.46,5.7-7.86,6.16A.07.07,0,0,1,103.31,141.68Z"/><path class="cls-1" d="M103.53,139.8a16.21,16.21,0,0,1,3-1.58.07.07,0,0,1,.07.12,16.15,16.15,0,0,1-3,1.61C103.54,140,103.46,139.86,103.53,139.8Z"/><path class="cls-1" d="M89.14,119.13s0,0,0,0c-4.87,3.78-6.92,11.06-4.05,16.68S94.92,144,101,142.45a0,0,0,0,1,0,.05,13.2,13.2,0,0,1-11.83-23.38Z"/><path class="cls-1" d="M82.52,130.41c0-.11.18-.06.16,0a12.86,12.86,0,0,0,8.4,14s0,0,0,0A12.49,12.49,0,0,1,82.52,130.41Z"/><path class="cls-1" d="M91.59,117.17c6.41-4.82,16.82-2.45,20.28,4.93a0,0,0,0,1-.08,0c-2.2-3.2-4.81-5.74-8.69-6.73a15.5,15.5,0,0,0-11.42,1.86C91.6,117.31,91.52,117.22,91.59,117.17Z"/><path class="cls-1" d="M92.4,118.56a28.14,28.14,0,0,1,4.38-1.9s0,0,0,.05a28.09,28.09,0,0,1-4.37,1.94A0,0,0,0,1,92.4,118.56Z"/><path class="cls-1" d="M108.52,120.43c4.64,4,5.35,11.51.6,15.78a.05.05,0,0,1-.08-.08c4-4.81,4.19-11.22-.59-15.64C108.41,120.45,108.47,120.39,108.52,120.43Z"/><path class="cls-1" d="M89,137.72c3.47,2.65,7.07,4,11.47,3.5,0,0,0,0,0,0a13.29,13.29,0,0,1-11.56-3.41C88.87,137.78,88.94,137.67,89,137.72Z"/><path class="cls-1" d="M83.06,125.61a0,0,0,0,1,0,0c-.42,1.52-.8,3.07-1.28,4.57a0,0,0,0,1-.07,0C82.12,128.63,82.62,127.12,83.06,125.61Z"/><path class="cls-1" d="M110.86,160.78a56.11,56.11,0,0,1,25.91-10.53s0,0,0,0A77.36,77.36,0,0,0,123,154.4,89.9,89.9,0,0,0,111,161C110.89,161,110.76,160.86,110.86,160.78Z"/><path class="cls-1" d="M111.29,157.67a65.55,65.55,0,0,1,9.42-5.1s0,0,0,0a70.43,70.43,0,0,0-9.31,5.29C111.28,158,111.16,157.76,111.29,157.67Z"/><path class="cls-1" d="M110.45,155.76c1-.59,2.06-1.12,3.08-1.67a0,0,0,0,1,0,0c-1,.6-2,1.24-3,1.8A.09.09,0,0,1,110.45,155.76Z"/><path class="cls-1" d="M109.92,151a84.84,84.84,0,0,1,21.86-7.86,0,0,0,0,1,0,0,123.35,123.35,0,0,0-21.66,8.19C109.88,151.52,109.67,151.16,109.92,151Z"/><path class="cls-1" d="M110,149c2.71-1.33,5.52-2.45,8.3-3.64,0,0,.07,0,0,.05-2.72,1.29-5.42,2.65-8.21,3.8C110,149.24,109.84,149,110,149Z"/><path class="cls-1" d="M110.27,146.49c2.17-1,4.37-1.86,6.55-2.79,0,0,0,0,0,0-2.16,1-4.29,2-6.46,2.94C110.25,146.73,110.14,146.55,110.27,146.49Z"/><path class="cls-1" d="M109.82,144.43q3.48-1.4,7-2.76c.08,0,.14.11.06.14q-3.45,1.47-6.93,2.88A.15.15,0,1,1,109.82,144.43Z"/><path class="cls-1" d="M110.84,141.56l3.93-1.72c.16-.07.3.17.14.24l-3.9,1.76C110.81,141.94,110.65,141.65,110.84,141.56Z"/><path class="cls-1" d="M112.64,139.26a6.84,6.84,0,0,1,1.53-.68c.09,0,.16.12.07.16a6.78,6.78,0,0,1-1.55.63A.06.06,0,0,1,112.64,139.26Z"/><path class="cls-1" d="M118.23,178.5c4.06-2.2,8.45-3.87,12.66-5.78,0,0,0,0,0,0-4.18,2-8.3,4.23-12.61,5.9C118.21,178.67,118.16,178.54,118.23,178.5Z"/><path class="cls-1" d="M117.58,176.33a49.18,49.18,0,0,1,13.12-5.09,0,0,0,0,1,0,.07,119,119,0,0,0-13.05,5.19A.09.09,0,0,1,117.58,176.33Z"/><path class="cls-1" d="M115.65,174.2c3.53-1.71,7.26-3.06,10.9-4.52,0,0,0,0,0,0-3.6,1.56-7.19,3.26-10.88,4.56C115.64,174.31,115.61,174.23,115.65,174.2Z"/><path class="cls-1" d="M113.9,173.09c3-1.44,6.11-2.59,9.17-3.83,0,0,0,0,0,0-3,1.31-6.05,2.75-9.16,3.87C113.89,173.18,113.86,173.11,113.9,173.09Z"/><path class="cls-1" d="M114.16,171.45a13.51,13.51,0,0,1,2-.85s0,0,0,0a13.47,13.47,0,0,1-2,.9A.05.05,0,0,1,114.16,171.45Z"/><path class="cls-1" d="M114.38,167.1a65.07,65.07,0,0,1,14.82-5.8,0,0,0,0,1,0,.07,113.51,113.51,0,0,0-14.78,5.83C114.37,167.22,114.32,167.13,114.38,167.1Z"/><path class="cls-1" d="M115.45,164.66c2.73-1.4,5.65-2.52,8.49-3.68,0,0,.05,0,0,0-2.79,1.28-5.6,2.66-8.48,3.7C115.44,164.74,115.41,164.68,115.45,164.66Z"/><path class="cls-1" d="M145,181.87c4.52-1.18,6.44-4.9,6-9.34,0-.07.1-.08.12,0,1.65,4.31-1.79,8.86-6.12,9.4C145,181.93,145,181.88,145,181.87Z"/><path class="cls-1" d="M147.18,178.55a5.22,5.22,0,0,0,1.39-.95,3.27,3.27,0,0,0,.81-1.75c0-.1.16-.1.16,0,0,1.23-.93,2.85-2.31,2.88A.1.1,0,0,1,147.18,178.55Z"/><path class="cls-1" d="M121.71,184.22c2.75,2.62,7.63,1.52,10.95.89A68.82,68.82,0,0,0,142.83,182c.06,0,.1.08,0,.11A38.31,38.31,0,0,1,130,185.88c-2.77.37-6.47,1-8.42-1.55C121.53,184.26,121.63,184.15,121.71,184.22Z"/><path class="cls-1" d="M122.42,183.67a13.56,13.56,0,0,0,8,.34c.05,0,.07.06,0,.08a10.53,10.53,0,0,1-8.19-.11C122.13,183.9,122.24,183.62,122.42,183.67Z"/><path class="cls-1" d="M101.58,107.74a5.88,5.88,0,0,1,.88,0,0,0,0,0,1,0,.07,5.89,5.89,0,0,1-.88,0A.05.05,0,0,1,101.58,107.74Z"/><path class="cls-1" d="M96.74,109.5a47.91,47.91,0,0,1,7.61-1.49c.22,0,.32.3.09.34a48,48,0,0,1-7.67,1.42C96.61,109.78,96.6,109.55,96.74,109.5Z"/><path class="cls-1" d="M97.19,107a34.07,34.07,0,0,1,5.41-1c.2,0,.29.27.08.31a34.26,34.26,0,0,1-5.47.88A.11.11,0,0,1,97.19,107Z"/><path class="cls-1" d="M97,105a32.85,32.85,0,0,1,5-1c.09,0,.13.12,0,.14a32.92,32.92,0,0,1-5,1.08C96.86,105.22,96.85,105,97,105Z"/><path class="cls-1" d="M99.62,103a0,0,0,0,1,0,0A0,0,0,0,1,99.62,103Z"/><path class="cls-1" d="M96.28,101.52a23.34,23.34,0,0,1,5.22-1c.31-.05.44.42.13.47-1.66.3-3.59.94-5.27.83C96.22,101.79,96.13,101.59,96.28,101.52Z"/><path class="cls-1" d="M95.9,99.43a23.13,23.13,0,0,1,3.89-.73c.24,0,.34.33.1.37a23.27,23.27,0,0,1-4,.59A.12.12,0,0,1,95.9,99.43Z"/><path class="cls-1" d="M95.24,97.45a28.73,28.73,0,0,1,5.19-1c.25,0,.36.35.1.39a28.86,28.86,0,0,1-5.27.78A.11.11,0,0,1,95.24,97.45Z"/><path class="cls-1" d="M94.6,95.31a46.5,46.5,0,0,1,6.51-1.56c.2,0,.28.26.08.31a46.58,46.58,0,0,1-6.56,1.49C94.48,95.56,94.48,95.36,94.6,95.31Z"/><path class="cls-1" d="M95,93.08a61.82,61.82,0,0,1,6.09-1.73.09.09,0,0,1,0,.17,61.62,61.62,0,0,1-6.08,1.75A.1.1,0,0,1,95,93.08Z"/><path class="cls-1" d="M94.6,91a66.16,66.16,0,0,1,7-2,.08.08,0,0,1,0,.15,66,66,0,0,1-7,1.94A.06.06,0,0,1,94.6,91Z"/><path class="cls-1" d="M94.13,87.7A24,24,0,0,1,102,85.45c.21,0,.29.28.08.32a77.51,77.51,0,0,0-7.84,2.14A.11.11,0,0,1,94.13,87.7Z"/><path class="cls-1" d="M93.49,84.38a71,71,0,0,1,7.82-2,.11.11,0,0,1,.06.22,71.19,71.19,0,0,1-7.83,1.95A.1.1,0,0,1,93.49,84.38Z"/><path class="cls-1" d="M93.06,81.57a84.1,84.1,0,0,1,9.55-2.66,0,0,0,0,1,0,.07,83.9,83.9,0,0,1-9.53,2.73A.07.07,0,0,1,93.06,81.57Z"/><path class="cls-1" d="M92.2,79.22a82.33,82.33,0,0,1,8.93-2.12.05.05,0,0,1,0,.11,82.57,82.57,0,0,1-8.89,2.26A.13.13,0,0,1,92.2,79.22Z"/><path class="cls-1" d="M90.88,77.71a48.51,48.51,0,0,1,11.54-3.29c.12,0,.18.17.05.19a116.43,116.43,0,0,0-11.53,3.24C90.86,77.89,90.8,77.75,90.88,77.71Z"/><path class="cls-1" d="M90.89,74.38c4-1.22,8.13-2.13,12.19-3.21a0,0,0,0,1,0,.05c-4,1.1-8.07,2.37-12.16,3.32A.09.09,0,0,1,90.89,74.38Z"/><path class="cls-1" d="M90.67,71.77c5-1.76,10.15-3.19,15.23-4.76.16,0,.22.19.06.24-5.06,1.61-10.1,3.37-15.22,4.79C90.56,72.09,90.5,71.83,90.67,71.77Z"/><path class="cls-1" d="M90.65,68.69A144.8,144.8,0,0,1,104.83,64a.07.07,0,0,1,0,.13c-4.81,1.34-9.5,2.94-14.17,4.7C90.58,68.91,90.54,68.73,90.65,68.69Z"/><path class="cls-1" d="M90.16,64.75a102.34,102.34,0,0,1,20.33-6.09s0,0,0,0a115.36,115.36,0,0,0-20.12,6.46C90.12,65.24,89.89,64.87,90.16,64.75Z"/><path class="cls-1" d="M90.68,62.08C94.14,60.15,98.2,59,102,57.75c4.08-1.32,8.24-2.38,12.43-3.29.05,0,.07.07,0,.08-4,1-8,2.12-12,3.41S94.69,61,90.74,62.23A.08.08,0,0,1,90.68,62.08Z"/><path class="cls-1" d="M90.41,59.38c8.72-4,18.52-6.27,27.91-8.12,0,0,0,0,0,.05-9.58,2-18.56,5.27-27.81,8.32C90.37,59.68,90.27,59.44,90.41,59.38Z"/><path class="cls-1" d="M92.14,56.1a46.34,46.34,0,0,1,10-3.52.2.2,0,0,1,.1.38,75.72,75.72,0,0,0-10,3.45C92.09,56.49,92,56.19,92.14,56.1Z"/><path class="cls-1" d="M132.42,208.58a199,199,0,0,0,22.35-5.16c.11,0,.15.13,0,.17a107.11,107.11,0,0,1-22.31,5.3C132.3,208.92,132.22,208.61,132.42,208.58Z"/><path class="cls-1" d="M132.46,206.57c2.27-.55,4.65-.75,7-1.09,0,0,0,0,0,0-2.3.41-4.62,1-7,1.18C132.4,206.69,132.39,206.58,132.46,206.57Z"/><path class="cls-1" d="M132.24,204.64a35.5,35.5,0,0,0,8-1.54c.15,0,.22.19.06.24a32.43,32.43,0,0,1-8.07,1.6C132,205,132,204.66,132.24,204.64Z"/><path class="cls-1" d="M132,202.68a62.14,62.14,0,0,0,6.73-1.11.15.15,0,0,1,.08.29,19.36,19.36,0,0,1-6.78,1.07C131.89,202.91,131.83,202.7,132,202.68Z"/><path class="cls-1" d="M131.58,200.47a35.28,35.28,0,0,0,8.24-1.46c.11,0,.16.14,0,.18a34.15,34.15,0,0,1-8.28,1.59C131.38,200.8,131.38,200.48,131.58,200.47Z"/><path class="cls-1" d="M131.58,197.83a34.62,34.62,0,0,0,9.31-1.47c.19-.06.27.24.08.3a34,34,0,0,1-9.39,1.58A.2.2,0,0,1,131.58,197.83Z"/><path class="cls-1" d="M131.58,195.45a40.43,40.43,0,0,0,9.09-1.52c.2-.07.29.25.09.32a23.48,23.48,0,0,1-9.17,1.48A.14.14,0,0,1,131.58,195.45Z"/><path class="cls-1" d="M131.15,192.15a27.36,27.36,0,0,0,10.44-1.52s0,0,0,0a26.55,26.55,0,0,1-10.45,1.9C130.88,192.55,130.88,192.14,131.15,192.15Z"/><path class="cls-1" d="M91.1,315.8a8,8,0,0,0,2.47,4,6.56,6.56,0,0,0,6.62,2.22c10.24-1.83,11.35-17.58,1.34-20.61a.1.1,0,0,0-.12.12,7.46,7.46,0,0,0-5.26.7C91.18,304.08,89.87,311.12,91.1,315.8Zm2.8,2.28c-2-3.23-1.79-8.08-.27-11.31a8.68,8.68,0,0,1,1.75-2.48,5.54,5.54,0,0,1,4.51-1,7.5,7.5,0,0,1,5.7,6.7c.7,5.65-4.46,13.34-10.46,8.79a.34.34,0,0,0-.5.15A6.55,6.55,0,0,1,93.9,318.07Z"/><path class="cls-1" d="M66.83,152.11a91.06,91.06,0,0,1,15.31-7.84s.06,0,0,.06c-5.12,2.6-10.28,5-15.15,8.1C66.81,152.55,66.63,152.23,66.83,152.11Z"/><path class="cls-1" d="M34.8,184.17c3.24-6.42,8.26-12.27,13.33-17.32S59,156.63,65.45,153.52a.09.09,0,0,1,.09.15c-3,2.2-6.26,4.1-9.23,6.42a88.31,88.31,0,0,0-7.92,7c-5.22,5.21-9.28,11.1-13.51,17.1A0,0,0,0,1,34.8,184.17Z"/><path class="cls-1" d="M41,178.44A75.58,75.58,0,0,1,52.5,165.1s0,0,0,0a86,86,0,0,0-11.45,13.77c-3.23,4.85-5.48,10-8,15.25,0,.1-.21,0-.17-.07C34.67,188.55,37.82,183.22,41,178.44Z"/><path class="cls-1" d="M29.66,196.53a54,54,0,0,1,4-9.62s0,0,0,0C32.5,190.3,31,193.56,29.81,197s-1.92,6.94-2.93,10.41a.08.08,0,0,1-.16,0A62.18,62.18,0,0,1,29.66,196.53Z"/><path class="cls-1" d="M32,198.64h0c-.92,3.17-1.46,6.46-2.41,9.62,0,.08-.17.07-.16,0A49.11,49.11,0,0,1,32,198.64Z"/><path class="cls-1" d="M71.81,147.16a29.13,29.13,0,0,1,9.28-4.89.05.05,0,0,1,0,.1c-3,1.68-6.13,3.34-9.2,4.95C71.83,147.37,71.71,147.24,71.81,147.16Z"/><path class="cls-1" d="M73,144.15a27.51,27.51,0,0,1,7.24-3.66,0,0,0,0,1,0,.08c-2.39,1.27-4.87,2.32-7.24,3.64A0,0,0,0,1,73,144.15Z"/><path class="cls-1" d="M70,143.56a97.35,97.35,0,0,1,9.26-4.82c.06,0,.12.06.05.09A97.83,97.83,0,0,1,70,143.64C69.94,143.66,69.92,143.58,70,143.56Z"/><path class="cls-1" d="M69.69,141c3-1.89,6.26-3.45,9.43-5.06a0,0,0,0,1,0,.08c-3.09,1.76-6.18,3.6-9.42,5.07A.05.05,0,0,1,69.69,141Z"/><path class="cls-1" d="M51.47,151.15a108,108,0,0,1,25.36-15.88c.06,0,.11.06.05.09a154.27,154.27,0,0,0-25.39,15.81S51.45,151.16,51.47,151.15Z"/><path class="cls-2" d="M45.63,279.11a0,0,0,0,0,0,0"/><path class="cls-1" d="M32.9,257.79A192.62,192.62,0,0,0,45.82,279s0,0,0,0a103.68,103.68,0,0,1-12.94-21.17S32.89,257.76,32.9,257.79Z"/><path class="cls-1" d="M30.09,253.76a78.12,78.12,0,0,0,7.86,16.66s0,0,0,0A59.44,59.44,0,0,1,30,253.77S30.08,253.72,30.09,253.76Z"/><path class="cls-1" d="M28.49,256.74c2.72,6.11,5.3,12,9,17.59,0,.06-.05.11-.09.05-3.77-5.25-7.34-11.31-9.08-17.59C28.34,256.72,28.45,256.67,28.49,256.74Z"/><path class="cls-1" d="M27.3,261.24c1.22,2.56,2.2,5.22,3.5,7.74s2.89,4.88,4.26,7.37c0,0,0,0,0,0a40.46,40.46,0,0,1-7.86-15.08C27.15,261.22,27.27,261.17,27.3,261.24Z"/><path class="cls-1" d="M24.92,262.15a80.46,80.46,0,0,0,5,10.84.05.05,0,0,1-.09.05,40.7,40.7,0,0,1-5-10.86C24.81,262.11,24.9,262.09,24.92,262.15Z"/><path class="cls-1" d="M18.37,206.38a0,0,0,0,1,0,0,94.91,94.91,0,0,0-1.51,36.18,87.71,87.71,0,0,0,4.3,16.79c2.14,5.87,5.22,11,8.25,16.44.06.1-.09.18-.15.09-3.46-4.83-5.92-10.64-8-16.18a91.25,91.25,0,0,1-4.78-17.78A83.26,83.26,0,0,1,18.37,206.38Z"/><path class="cls-1" d="M28,209.81c0-.06.12-.05.11,0a139,139,0,0,0-1.4,19.05c.13,6.73,1.42,13.14,2.39,19.76a.13.13,0,0,1-.24.06c-1.85-6.14-2.26-13-2.41-19.41A79.71,79.71,0,0,1,28,209.81Z"/><path class="cls-1" d="M25.85,240.56a0,0,0,0,1,.07,0,77.45,77.45,0,0,0,1.43,9.1.11.11,0,0,1-.21.06A21.87,21.87,0,0,1,25.85,240.56Z"/><path class="cls-1" d="M25,186.89s.09,0,.07,0a116.27,116.27,0,0,0-6,15.52,0,0,0,0,1-.07,0A54.42,54.42,0,0,1,25,186.89Z"/><path class="cls-1" d="M61.73,301.25A97.17,97.17,0,0,1,74.12,306c.06,0,0,.12,0,.11a97.2,97.2,0,0,1-12.37-4.77S61.69,301.24,61.73,301.25Z"/><path class="cls-1" d="M40.16,284.87C48.67,295.15,59,303,71.59,307.61c0,0,0,.08,0,.07-12.33-4.09-24-12.08-31.48-22.75C40.06,284.89,40.13,284.83,40.16,284.87Z"/><path class="cls-1" d="M33.12,280.35a87.35,87.35,0,0,0,16.42,18,84.26,84.26,0,0,0,21.79,12.2c.07,0,0,.14,0,.12C55.95,306,41,294.31,33.08,280.38,33.06,280.35,33.1,280.33,33.12,280.35Z"/><path class="cls-1" d="M120.1,319.11a45.43,45.43,0,0,0-1.12-9.46,0,0,0,0,1,.09,0,25.83,25.83,0,0,1-.42,18.92c0,.08-.15,0-.14-.06A47.78,47.78,0,0,0,120.1,319.11Z"/><path class="cls-1" d="M106.9,303.1a0,0,0,0,1,0,0c2.84,4,3.69,9.86,1.28,14.29a.08.08,0,0,1-.14-.06C109.39,312.33,109.34,307.78,106.9,303.1Z"/><path class="cls-1" d="M110.86,308.72a.07.07,0,0,1,.14,0c.53,2.13.66,4.68-.57,6.6a.11.11,0,0,1-.2-.08C110.77,313,111.33,311,110.86,308.72Z"/><path class="cls-1" d="M97,300.32c.09,0,.15.11.06.15-4.76,2.17-6.94,5.81-7.31,11,0,.1-.18.14-.19,0C88.91,306.61,92.39,301.69,97,300.32Z"/><path class="cls-1" d="M90.41,304.62c.15-.17.39.08.25.25a7.87,7.87,0,0,0-1.6,4.27c0,.1-.18.1-.2,0A5.39,5.39,0,0,1,90.41,304.62Z"/><path class="cls-1" d="M97,322.22c3.17.74,6.05.76,8.82-1.24,0,0,.07,0,0,.05-2.41,1.94-6.05,2.9-8.93,1.37A.1.1,0,0,1,97,322.22Z"/><path class="cls-1" d="M77.53,315.38a41.62,41.62,0,0,1,6-12.76c0-.06.13,0,.09.05A46.7,46.7,0,0,0,78,315.12c-1.27,4.51-1.27,8.95-1.62,13.56,0,.19-.33.27-.36,0C75.39,324.39,76.36,319.55,77.53,315.38Z"/><path class="cls-1" d="M79.44,317.21a.06.06,0,0,1,.12,0c-.63,3.42-.87,6.91-1.51,10.31,0,.12-.19.08-.2,0A32.58,32.58,0,0,1,79.44,317.21Z"/><path class="cls-1" d="M80.46,321.85a.1.1,0,0,1,.19.05c-.44,1.81-.4,3.72-.84,5.52,0,.15-.24.1-.25,0A15.06,15.06,0,0,1,80.46,321.85Z"/><path class="cls-1" d="M81.73,324c0-.17.29-.18.27,0-.08,1.06-.14,2.13-.25,3.19,0,.23-.38.23-.36,0C81.48,326.17,81.62,325.11,81.73,324Z"/><path class="cls-1" d="M91.72,295.21c6.91-5.84,18.47-2.74,22.46,5.07a0,0,0,0,1,0,0c-2.39-3.54-5.54-6.28-9.79-7.28-4.47-1.05-8.62.2-12.56,2.28C91.73,295.34,91.66,295.26,91.72,295.21Z"/><path class="cls-1" d="M143.74,314.12c6.85-3.87,13.78-7.8,19.47-13.32s9.4-12.36,14-18.78a0,0,0,0,1,0,0,79.29,79.29,0,0,1-13.79,19c-5.65,5.58-12.64,9.53-19.52,13.4A.16.16,0,0,1,143.74,314.12Z"/><path class="cls-1" d="M124.3,317.86c5.89-1,11.68-1.26,17.42-3.13.13,0,.18.15.05.2-5.42,1.85-11.65,3.75-17.45,3.16C124.21,318.07,124.16,317.89,124.3,317.86Z"/><path class="cls-1" d="M124.61,316.5c5.33-.86,10.48-1.58,15.64-3.25.08,0,.1.09,0,.12-4.88,1.84-10.39,3.34-15.66,3.26C124.56,316.62,124.54,316.51,124.61,316.5Z"/><path class="cls-1" d="M125.33,314.84c2.66-.64,5.35-.85,8-1.69,0,0,.05,0,0,.06-2.49.88-5.3,1.85-8,1.77A.07.07,0,0,1,125.33,314.84Z"/><path class="cls-1" d="M124.89,313.41c1.8-.34,3.59-.35,5.37-.87.06,0,.08.07,0,.09a13.12,13.12,0,0,1-5.37,1C124.82,313.57,124.78,313.43,124.89,313.41Z"/><path class="cls-1" d="M123.88,310.69c4.49-.72,8.78-1.22,13-2.94,0,0,0,0,0,0-4,1.71-8.58,3.24-13,3.09C123.8,310.86,123.77,310.7,123.88,310.69Z"/><path class="cls-1" d="M124.88,309c.63-.18,1.32-.16,2-.27a14.85,14.85,0,0,0,1.93-.5c.21-.07.29.26.09.33a8.88,8.88,0,0,1-4,.68C124.76,309.21,124.77,309,124.88,309Z"/><path class="cls-1" d="M124.27,307.84a3.4,3.4,0,0,1,1.15-.28l1.33-.23c.25,0,.36.34.1.39l-1.42.25a3.17,3.17,0,0,1-1.13.12A.13.13,0,0,1,124.27,307.84Z"/><path class="cls-1" d="M122.56,305.67c2.86-.43,5.71-.32,8.57-1a.05.05,0,0,1,0,.1c-2.7.7-5.79,1.51-8.6,1.13A.14.14,0,0,1,122.56,305.67Z"/><path class="cls-1" d="M170.52,287.93a50.69,50.69,0,0,1,4.27-6.2s.07,0,0,0a50.71,50.71,0,0,1-4.15,6.3C170.6,288.15,170.47,288,170.52,287.93Z"/><path class="cls-1" d="M170.91,284.12l1.25-1.76c.14-.2.47,0,.33.19l-1.23,1.77a8,8,0,0,1-1.19,1.54c-.08.07-.23,0-.19-.11A7.88,7.88,0,0,1,170.91,284.12Z"/><path class="cls-1" d="M167.54,286.08c1.24-2,2.82-3.87,4.23-5.79h0c-1.37,1.95-2.6,4-4.13,5.86C167.59,286.22,167.5,286.15,167.54,286.08Z"/><path class="cls-1" d="M164.14,287.47c1.78-2,3.52-4,5.1-6.19,0,0,.06,0,0,0a24.14,24.14,0,0,1-5.06,6.26A.07.07,0,0,1,164.14,287.47Z"/><path class="cls-1" d="M161.68,287.64a42.55,42.55,0,0,1,4.8-6.24.05.05,0,0,1,.09.07,42.4,42.4,0,0,1-4.75,6.28A.09.09,0,0,1,161.68,287.64Z"/><path class="cls-1" d="M137.53,303.83c4.95-2.41,9.67-4.56,14-8.1a51.94,51.94,0,0,0,10.68-12.14.06.06,0,0,1,.11.06,44.49,44.49,0,0,1-10.72,12.63c-4,3.25-8.89,6.44-14,7.71C137.51,304,137.44,303.87,137.53,303.83Z"/><path class="cls-1" d="M188.25,335.82a25.84,25.84,0,0,1,10.85,23.58c0,.1-.16.1-.16,0a28.82,28.82,0,0,0-10.78-23.47C188.11,335.88,188.19,335.78,188.25,335.82Z"/><path class="cls-1" d="M193.4,345.65a15.13,15.13,0,0,1,2.68,11.45c0,.09-.16.07-.16,0a25.73,25.73,0,0,0-2.6-11.39A0,0,0,0,1,193.4,345.65Z"/><path class="cls-1" d="M193.16,351.3s0,0,0,0a7.88,7.88,0,0,1,.65,5.25.09.09,0,0,1-.18,0A14.32,14.32,0,0,0,193.16,351.3Z"/><path class="cls-1" d="M199.79,362.6a.06.06,0,0,1,.12,0,39.11,39.11,0,0,1,.08,4.93.14.14,0,0,1-.28,0A39.09,39.09,0,0,1,199.79,362.6Z"/><path class="cls-1" d="M197.1,365.7q.06-1.41.09-2.81a.05.05,0,0,1,.1,0q0,1.41.09,2.81a8.1,8.1,0,0,1,0,2.44.12.12,0,0,1-.24,0A8.17,8.17,0,0,1,197.1,365.7Z"/><path class="cls-1" d="M201,354.49c1.3,4.56,2.53,9.43,2.44,14.2a.11.11,0,0,1-.22,0c-.57-4.81-.92-9.51-2.25-14.2A0,0,0,0,1,201,354.49Z"/><path class="cls-1" d="M45.32,345.79a30.72,30.72,0,0,1,14.16-10.62s.07.05,0,.07a35,35,0,0,0-14.12,11.3,33.27,33.27,0,0,0-4.23,7.9,67.09,67.09,0,0,0-2,8.47.11.11,0,0,1-.21,0C38.56,357,41.85,350.39,45.32,345.79Z"/><path class="cls-1" d="M44.23,343.24a0,0,0,0,1,.07.07,31.69,31.69,0,0,0-5.83,8.23c-1.52,3.12-2.11,6.3-2.89,9.63a.08.08,0,0,1-.15,0C35.24,354.44,39.35,347.55,44.23,343.24Z"/><path class="cls-1" d="M50.49,344.86s0,0,0,0c-4.83,5.28-6.93,11.38-7.95,18.32,0,.11-.18.08-.18,0C42.22,356.38,45.76,349.54,50.49,344.86Z"/><path class="cls-1" d="M46.16,357.08c0-.06.11,0,.09,0a19.66,19.66,0,0,0-1,5.79.16.16,0,0,1-.32,0A15.81,15.81,0,0,1,46.16,357.08Z"/><path class="cls-1" d="M189.17,364.34c-6.83.12-13.67.08-20.51,0C175.5,364.26,182.34,364.22,189.17,364.34Z"/><path class="cls-1" d="M190.57,364.36l-1.41,0,1.41,0A0,0,0,0,1,190.57,364.36Z"/><path class="cls-1" d="M108.82,364.3c13.62-.19,27.25-.13,40.87-.13,6.31,0,12.64.1,19,.17-6.32.07-12.65.17-19,.17-13.62,0-27.25.06-40.88-.13A0,0,0,0,1,108.82,364.3Z"/><path class="cls-1" d="M52.87,364c8.68-.42,17.4-.19,26.09-.17s17.47-.47,26.09.14a.08.08,0,0,1,0,.17c-8.62.62-17.44.12-26.09.14s-17.41.26-26.09-.17A.06.06,0,0,1,52.87,364Z"/><path class="cls-1" d="M72.46,315.78a73.19,73.19,0,0,0-1.18,13.35.7.7,0,0,0,.11.4c-9.27.48-18.35,2.4-26.17,7.78C35,344.39,28.88,358.09,35,369.87a.72.72,0,0,0,1.31-.15h.06c6.28.45,12.74-.1,19-.2q9.09-.14,18.17-.21,7.37-.06,14.75-.08l28.32.68,23,1.06,33.24,1.52q8.2.37,16.4.73c5.59.24,11.25.7,16.84.5a.71.71,0,0,0,0-1.42c-1.72-.22-3.44-.38-5.17-.5l4.41.08a1,1,0,0,0,1-.63.63.63,0,0,0,0-.87,1.08,1.08,0,0,0-.37-.51c-.52-14.61-4.66-33.17-19.81-39.15-6.73-2.66-14.18-2.25-21.23-1.44-8.1.93-16.11,2-24.27,2.31-5.51.2-11,.19-16.53.06a26.86,26.86,0,0,0-.49-7.83c0-.1,0-.2,0-.3,0-.73,0-1.47,0-2.2a69.43,69.43,0,0,0,35.7-13.82c10.1-7.6,19-18.33,23.1-30.43q17.51-.35,35-.81l0,0a.37.37,0,0,0,.68-.09s0-.09,0-.13a.71.71,0,0,0,.09-.89c0-1-.16-1.92-.19-2.9a36.09,36.09,0,0,1,.1-4.22,48.58,48.58,0,0,1,1.94-9.22.42.42,0,0,0-.12-.42.54.54,0,0,0-.49-.39c-9.17-.72-18.43-.84-27.63-1q-47.84-1.09-95.66,1.76a.42.42,0,0,0-.47,0l-.59,0c-.87.05-.88,1.42,0,1.37l.32,0c-.49,6-.09,12.12-.09,18.08a.62.62,0,0,0,1,.48h.06l26.86-.54q19.2-.38,38.4-.72c-1.1,1.6-2,3.37-3.12,5a50.44,50.44,0,0,1-4.37,5.32,51.6,51.6,0,0,1-10,8.23,50.93,50.93,0,0,1-12.06,5.56,49.15,49.15,0,0,1-6.23,1.49c-1.87.32-4,.15-5.8.88l-.1.06c-.08-.18-.16-.37-.24-.55a30.41,30.41,0,0,0-3.88-6.21,23.05,23.05,0,0,0-4.43-4.58,18.36,18.36,0,0,0-11.34-4,22.6,22.6,0,0,0-11.93,2.89,27.52,27.52,0,0,0-8.37,7.1A80.92,80.92,0,0,1,62,289.92a72.68,72.68,0,0,1-15.07-13.69c-17.57-21.08-21.24-50.45-12.4-76.07,8.53-24.7,28.34-44.23,51.88-54.95a.62.62,0,0,0,.19-.13c3.9,2.32,8.82,2.61,13.18,1.77a21.67,21.67,0,0,0,4.09-1.22.56.56,0,0,0,0,.2,104.75,104.75,0,0,1,2,13.16c.25,2.35,1.13,4.49,3.32,5.48a7.82,7.82,0,0,1,.69.93,20,20,0,0,1,.77,3.7.55.55,0,0,0,.12.29c0,.12,0,.25,0,.37a1.58,1.58,0,0,0-1.51.88c-.74,1.22.06,2.61.64,3.7,1.36,2.57,2.63,5.32,4.21,7.76a4.4,4.4,0,0,0,1.33,1.45.55.55,0,0,0,.32.8c.75.15,1.49.31,2.24.42,1.06,2.54,3.48,3.64,6.42,3.94a119.74,119.74,0,0,0,1.73,12.15c.44,2.27.94,4.52,1.51,6.76a13.36,13.36,0,0,0,1.45,4.3c-.47.22-.33,1.1.24,1A108.28,108.28,0,0,0,143,210.11q3.57-.91,7.1-2c1.75-.52,3.92-.87,5.38-2l0,.06c.12.27.53.17.6-.08.58-2.16-.12-4.9-.39-7.1s-.56-4.21-.91-6.3c-.41-2.45-.88-4.89-1.43-7.32a30.52,30.52,0,0,0-1.39-5.26l.08-.1a8.21,8.21,0,0,0,1.5-6.62.33.33,0,0,0,.17,0,3,3,0,0,0,1.76-1.77,3.07,3.07,0,0,0,.39-.44A.3.3,0,0,0,156,171a.41.41,0,0,0,.12-.39.63.63,0,0,0,.15-.37A24.91,24.91,0,0,0,154,158.85c-.17-.35-.72-.11-.61.25v0H153a26.54,26.54,0,0,1-.93-3.8,14.47,14.47,0,0,1,.5-4.05.24.24,0,0,0,.1-.16,13.22,13.22,0,0,0-.34-3.71,33.6,33.6,0,0,0-.77-4.46.45.45,0,0,0-.12-.36.32.32,0,0,0-.42-.11l-1.48,0c-1.85-8.19-4.25-16.29-6.3-24.43s-4.1-16.58-6.06-24.9c-3.86-16.45-7.67-33-10.8-49.58a.34.34,0,0,0-.14-.63.56.56,0,0,0-1,.18l-.83.18a5.74,5.74,0,0,0,3.34-5.22c.06-2.87-1.51-5.2-3.3-7.28a.2.2,0,0,0,.07-.37c-.24-.14-.49-.27-.74-.38l-.23-.26a.3.3,0,0,0-.41,0,12.3,12.3,0,0,0-1.78-.57,9.19,9.19,0,0,1-1-3.33c1.89-1.83,3.53-4.35,3.21-7.07s-2.36-4.11-4.91-4.32c-3.73-.3-7.76,1-11.24,2.2-4.19,1.4-8.3,3-12.4,4.65s-8.28,3.28-12.41,4.95c-3.1,1.25-6.88,2.27-9.18,4.84-1.59,1.77-2.51,4.59-1.1,6.74a4.05,4.05,0,0,0,4.56,1.73l1,2.42a12.61,12.61,0,0,0-2.25,1.47.34.34,0,0,0-.09.41,7.46,7.46,0,0,0,2.29,11.49,8.2,8.2,0,0,0,5.1.61.45.45,0,0,0,.5.13Q94,52.72,104.75,49.63c6.82-2,13.78-3.58,20.55-5.68,3.55,16.52,7,33.06,10.83,49.51q2.94,12.47,6.09,24.89c2,8.07,3.91,16.27,6.39,24.22-6.86.38-13.92,2.18-20.44,4a132,132,0,0,0-21,7.7,77.94,77.94,0,0,0-1.49-9.43c6.67-3.45,11.36-10.24,10.87-18.14-.52-8.45-7.94-15.57-16.43-14.77a18.9,18.9,0,0,0-4.79.27c-1.62-9.23-3.67-18.41-5.53-27.6s-3.39-18.83-5.71-28.06c-.17-.66-1.1-.38-1,.27,1.44,9.4,3.74,18.75,5.62,28.08,1.85,9.17,3.52,18.41,5.6,27.53a15.69,15.69,0,0,0-2,.65,20.51,20.51,0,0,0-12.72,18.58,110.24,110.24,0,0,0-41.07,29.05C16.65,185.43,7.66,220,15.89,252.16,23.17,280.6,44.68,305.69,72.46,315.78Zm5.3-276.49a161.06,161.06,0,0,1,41.48-13.08,4.51,4.51,0,0,0,.9,2.8,21.84,21.84,0,0,0-6.91.24,92.81,92.81,0,0,0-13.18,3.58Q93.6,35,87.34,37.64,84.25,39,81.22,40.43c-.81.39-1.66.76-2.5,1.17Zm42.1-14.18a.63.63,0,0,0-.23,0A155.8,155.8,0,0,0,77.28,38.38a.55.55,0,0,0-.37,0A3,3,0,0,1,72.72,36a5.28,5.28,0,0,1,1.82-4.53c2-1.93,5-2.8,7.48-3.82,5.29-2.15,10.58-4.29,15.9-6.36s10.46-4.24,15.95-5.34c2.76-.55,7.12-1.37,8.41,2C123.34,20.71,121.49,23.06,119.86,25.11Zm-.43,18.7q-8.82,2.7-17.64,5.42C99.2,50,96.6,50.88,94,51.71L88.3,53.47c-1.24.36-2.48.71-3.72,1-3.45.9-7.18.55-9-2.92-1.48-2.77-.42-5.77,1.65-7.85,1.33-.56,2.59-1.34,3.88-2q2.84-1.4,5.74-2.68,6.09-2.68,12.4-4.82c7.52-2.55,16-5.76,24-3.74,1.63,2.22,3.52,4.74,3.4,7.59C126.45,42.12,122.58,42.85,119.43,43.81Zm32.52,115.33a67.35,67.35,0,0,0-9.44,1.3q-5.5,1-10.91,2.46l-1.75.49a131.16,131.16,0,0,1,19.55-4.85s0-.06,0-.06a122.16,122.16,0,0,0-34.18,10.08q-1.64.7-3.26,1.45a.58.58,0,0,0,0-.06,18.79,18.79,0,0,0-.73-5.2q1-.72,2-1.4l1-.55-.38.22a.13.13,0,0,0,.13.22c2-.87,3.91-2.06,5.83-3.12,0,0,0,0,0,0-1.35.64-2.75,1.24-4.09,1.92l1.12-.6A93.9,93.9,0,0,1,131,155.7c6.75-2.09,13.54-2.89,20.48-4l.09,0C150.73,153.88,150.67,157.14,151.95,159.15Zm-21.65-4.57c-1.42.44-2.84.92-4.25,1.42a.58.58,0,0,0-.13-.19q2-.71,4.1-1.31t4.34-1.11C133,153.77,131.63,154.17,130.3,154.58Zm-14.35,5.76q-1.88,1-3.71,2c.58-.37,1.15-.75,1.74-1.08q2.44-1.39,5-2.59l.26-.12Q117.56,159.4,115.95,160.34Zm11.41,32.74a30.59,30.59,0,0,1,4.66-3.21A39.24,39.24,0,0,0,144,187c.12,0,.07-.24-.05-.2a40.39,40.39,0,0,1-11,2.54,30.94,30.94,0,0,1,19.55-2.91c.42,2,.81,4.1,1.15,6.17q.66,4,1.08,8.07a24.84,24.84,0,0,0,.61,5c-2.05-.07-4.33,1.06-6.29,1.62s-4.21,1.16-6.32,1.68c-4.09,1-8.23,1.71-12.34,2.6a.65.65,0,0,0,0-.13,34.45,34.45,0,0,1-2.19-6.24c-.06-.25-.12-.5-.17-.75l-.05-.23c-.06-.26-.11-.52-.16-.78A34.6,34.6,0,0,1,127.36,193.08Zm24-7.81a29.88,29.88,0,0,0-3.21-.32l2.18-.26A4.38,4.38,0,0,1,151.35,185.26Zm-.38-3.74-.1.09a.34.34,0,0,0-.07-.12c.17-.16.34-.32.5-.49,0,.1,0,.19,0,.29A.45.45,0,0,0,151,181.52Zm-.88,2.17-.16,0,0,0,.42-.24a2.4,2.4,0,0,0,.16.26Zm-.54-.93a.36.36,0,0,0,0,.12l-1.57.71a.34.34,0,0,0-.2.29l-.83.08a16.08,16.08,0,0,0,2.78-1.59ZM133.08,188l.09,0a31.53,31.53,0,0,0-5.57,3.38q.07-.41.15-.83A17.94,17.94,0,0,1,133.08,188Zm-5.75,1.28.13-.27a.55.55,0,0,0,.05-.24l.69-.05C127.91,188.9,127.62,189.08,127.33,189.28Zm-7.68-3.9a67.1,67.1,0,0,1,16.27-9.11,64.82,64.82,0,0,1,8.73-2.64c2.36-.54,5-.61,7.33-1.43a6.51,6.51,0,0,1-.56,6.82.15.15,0,0,0-.26.1c0,.09,0,.18,0,.26a9.41,9.41,0,0,1-2.11,2.09c-2.55,1.82-5.7,2.71-8.72,3.5q-2.21.44-4.39,1c-1.23.31-2.49.64-3.72,1C127.39,188,121.94,188.31,119.65,185.38Zm.91-3.81-.53.27v-.07a.53.53,0,0,0,0-.09,7.13,7.13,0,0,1,.71-.59l.88-.38C121.24,181,120.9,181.27,120.56,181.56Zm-9.32-9.81a132.63,132.63,0,0,1,21-7.9q5.2-1.42,10.51-2.4c3.6-.66,7.31-.88,10.87-1.67a35.12,35.12,0,0,1,1.4,6.62c.06.62.46,2.53.11,3s-2,.57-2.75.69a130.07,130.07,0,0,0-32.46,10,105.06,105.06,0,0,1,14.73-6.55,93.13,93.13,0,0,1,18.44-4s0-.05,0,0a83.91,83.91,0,0,0-18.5,3.86,69.75,69.75,0,0,0-17.2,7.85.08.08,0,0,0,0,.1L116,182C114.37,178.59,112.81,175.17,111.24,171.76Zm.91,4.62-.36-.67a11.29,11.29,0,0,1-1.61-3.57Zm-4.85-20.86a149.45,149.45,0,0,1,21.59-7.85c3.73-1,7.51-1.88,11.31-2.6,3.52-.66,7.11-1,10.62-1.71a35.59,35.59,0,0,0,.44,3.67,18.44,18.44,0,0,0,.66,3.82v0l0,0a17.56,17.56,0,0,0-5-.17c-2,.07-4,.25-6,.5a74,74,0,0,0-22.1,6.37q-2.71,1.26-5.32,2.75a19.59,19.59,0,0,0-4.2,2.74,13.78,13.78,0,0,1-1.76-3.83A26.26,26.26,0,0,1,107.3,155.52ZM83.52,140.57a16.12,16.12,0,0,1-2.6-10.79,19.14,19.14,0,0,1,14.72-16.42c8.18-1.67,15.22,3.14,19.06,10a15.78,15.78,0,0,1,.33,7.82c-1.84,8.75-10.12,14.47-18.8,14.8C91.4,146.17,86.4,144.65,83.52,140.57Zm1.44,155a41.19,41.19,0,0,0-8.19,10.8l-.15.29c.13-.29.25-.58.39-.87A29.59,29.59,0,0,1,85,295.53Zm35.72,15.81c.33,1.33.6,2.68.85,4a60.42,60.42,0,0,1,.48,6.4c-.05,3.28-.31,6.55-.49,9.82-10.78-.34-21.55-1.12-32.32-1.75-5.13-.3-10.43-.55-15.69-.4,0,0,0,0,0,0a41.31,41.31,0,0,1,.92-13.25.63.63,0,0,0,.11-.45A39.24,39.24,0,0,1,78,306.64a41.55,41.55,0,0,1,3.26-5.14c4.16-4.26,8.47-8.92,14.18-10.86a15.18,15.18,0,0,1,2.35-.59,18.16,18.16,0,0,1,10.77,2.59,23.67,23.67,0,0,1,7.53,7.07A40.58,40.58,0,0,1,120.68,311.34Zm-24.13-34c0-5.69.37-11.54-.1-17.2q13.12-.79,26.25-1.3,24.17-.92,48.37-.81c16,.07,31.92.89,47.88,1.11a30,30,0,0,0-2,8.21c-.25,2.2-.64,5.27,0,7.64-8.7.11-17.4.31-26.09.48Zm70.1.07-.52.2a.43.43,0,0,0,0-.19Zm14.18.18a.5.5,0,0,0,0-.1.52.52,0,0,0,.23-.35h.1l-.24.53Zm-1.24,1.23a.4.4,0,0,0,.21-.11l.1-.1v0l-.1.45,0,.11C179.71,279,179.65,278.91,179.58,278.79ZM123.5,319.93a46.39,46.39,0,0,0-3.21-15.13c1.87.47,4.33-.19,6.19-.52a49.26,49.26,0,0,0,6.53-1.64,52.23,52.23,0,0,0,12.29-5.87,52.85,52.85,0,0,0,5.71-4.29,49.37,49.37,0,0,0,4.72-4.44,52.5,52.5,0,0,0,4.66-5,18.55,18.55,0,0,1,8.36-5.08c3.64-1,9.69-1.47,10.58,3.11A70.35,70.35,0,0,1,159.11,306,68,68,0,0,1,123.5,319.93Zm-23.67,12c15.56.95,31.18,1.8,46.76.76,7.28-.49,14.45-1.74,21.71-2.39,7-.63,14.39-.46,20.61,3.19,5.83,3.41,9.76,9.33,12.09,15.55,2.5,6.68,3,13.72,4.23,20.68-12.41-.35-24.83-.59-37.25-.87l-54.49-1.24-6.85-.3c12.22.09,24.45,0,36.67,0h25.44c8.56,0,17.35.55,25.87-.26a.05.05,0,0,0,0-.11c-8.52-.82-17.32-.27-25.87-.26H143.32c-16.39,0-32.8-.17-49.19.17l-4.24-.13a.19.19,0,0,0-.2-.2c-1.84,0-3.69,0-5.53.05-9.33-.23-18.66-.33-28-.26H56l2.66-.25s0-.07,0-.07l-6.69.23L36,365.8a1,1,0,0,0-1,.59,23.24,23.24,0,0,1,2.31-18.8c3.78-6.51,10.35-11,17.31-13.53C69,328.79,85,331,99.83,331.88ZM34.84,287C14.26,261.68,9,226.89,19.24,196.15q1-2.88,2.09-5.68a.08.08,0,0,0,.14,0c1.89-3.27,3.43-6.73,5.39-10s3.92-6.19,6.09-9.13a104.69,104.69,0,0,1,15.69-16.83h0A111.76,111.76,0,0,0,33,171a91.77,91.77,0,0,0-9.73,14.87c11.13-24,31.8-43,56.28-53,0,.39.06.78.12,1.17a15.23,15.23,0,0,0,5.65,10.18,103.1,103.1,0,0,0-35.09,26.17c-18.12,21-26.27,50.17-19.35,77.35a74.81,74.81,0,0,0,18.24,33c7.31,7.7,16.7,14.47,27,17.85a6,6,0,0,1,.45,1.69,90.66,90.66,0,0,1-14.88-7.6c-5.28-3.48-9.72-7.7-14.27-12a.07.07,0,0,0-.1.1A62,62,0,0,0,61.2,292.81a67.3,67.3,0,0,0,15.38,7.89c0,.16,0,.33,0,.49q-.21.71-.46,1.41A15.19,15.19,0,0,1,71,300.67s-.1,0-.06.07a9,9,0,0,0,5.09,2.07q-.23.64-.49,1.27a68.8,68.8,0,0,1-16.66-7.47c-5.28-3.44-9.24-7.78-13.58-12.26-.06-.06-.16,0-.12.09,3.2,5,8.34,9.07,13.23,12.29a49.32,49.32,0,0,0,17.09,7.43,45.49,45.49,0,0,1-2.45,5,7.36,7.36,0,0,1-4.67,3.41l-.05,0-.24,0a6.35,6.35,0,0,1-.72-.23A92.82,92.82,0,0,1,34.84,287Z"/><path class="cls-1" d="M161.58,333.36c5.26-1.08,11.07-.44,16.26.7,0,0,0,.05,0,0-5.5-1-10.71-.79-16.24-.64A.05.05,0,0,1,161.58,333.36Z"/><path class="cls-1" d="M215.94,261.69a0,0,0,0,1,0,0,100.38,100.38,0,0,0-1.41,12.49.15.15,0,0,1-.3,0A43.65,43.65,0,0,1,215.94,261.69Z"/><path class="cls-1" d="M213.08,268.65c0-.07.13-.06.13,0a30.52,30.52,0,0,1-.83,5.83.11.11,0,0,1-.22,0A30.54,30.54,0,0,1,213.08,268.65Z"/><path class="cls-1" d="M210.22,272.15c.06-.5.13-1,.21-1.48,0-.14.25-.11.24,0,0,.56-.07,1.11-.12,1.67a4.1,4.1,0,0,1-.22,1.28.1.1,0,0,1-.19,0A4.72,4.72,0,0,1,210.22,272.15Z"/><path class="cls-1" d="M208.13,271.29a.13.13,0,0,1,.25,0,13.68,13.68,0,0,1,0,2,.16.16,0,0,1-.31,0A13.71,13.71,0,0,1,208.13,271.29Z"/><path class="cls-1" d="M206.35,272.76a2.83,2.83,0,0,1,1-1c.19-.13.36.18.17.31a2.44,2.44,0,0,0-.82.91c-.16.32-.14.73-.34,1a.12.12,0,0,1-.21,0C205.94,273.6,206.18,273.09,206.35,272.76Z"/><path class="cls-1" d="M203.88,273.59c.05-.3.11-.6.17-.89s.45-.16.41.11-.1.6-.16.9,0,.47-.25.62a.13.13,0,0,1-.18,0C203.74,274.06,203.84,273.81,203.88,273.59Z"/><path class="cls-1" d="M99.84,274.5c16.91-.25,33.82-.23,50.73-.39s33.83-.63,50.73-.45a.18.18,0,0,1,0,.36c-16.89.5-33.83.37-50.73.54s-33.82.52-50.73.6A.33.33,0,0,1,99.84,274.5Z"/><path class="cls-1" d="M98.68,272c7,.24,13.92.18,20.87.4a.06.06,0,0,1,0,.12c-7,0-13.91-.24-20.87-.19A.16.16,0,0,1,98.68,272Z"/><path class="cls-1" d="M100.41,270.47c3.76-.27,7.54-.36,11.31-.5.07,0,.07.11,0,.12-3.76.25-7.53.54-11.31.66C100.23,270.75,100.23,270.48,100.41,270.47Z"/><path class="cls-1" d="M100.41,268.71c2.79-.09,5.61-.26,8.41-.13a0,0,0,0,1,0,.1c-2.78.32-5.61.34-8.41.43C100.16,269.12,100.16,268.72,100.41,268.71Z"/><path class="cls-1" d="M101.29,266.77c2.71-.17,5.41-.31,8.12-.44,0,0,0,0,0,0-2.7.25-5.41.5-8.12.71C101.09,267.09,101.09,266.78,101.29,266.77Z"/><path class="cls-1" d="M100.38,264.78c3-.41,6-.68,9-1,0,0,0,0,0,.05-3,.44-6,.94-9,1.3C100.23,265.13,100.19,264.8,100.38,264.78Z"/><path class="cls-1" d="M100.41,262.64c3.47-.42,7-.58,10.45-.89,0,0,0,.06,0,.07-3.48.39-6.95.95-10.45,1.23C100.15,263.07,100.16,262.68,100.41,262.64Z"/><path class="cls-1" d="M101.87,260.75c.63,0,1.25.17,1.88.2a9.59,9.59,0,0,0,2.16-.17.08.08,0,0,1,0,.15c-1.19.44-3,.75-4.13,0A.1.1,0,0,1,101.87,260.75Z"/><path class="cls-1" d="M98.18,262.3a.05.05,0,0,1,.11,0,91.43,91.43,0,0,1-.16,13.34.08.08,0,0,1-.16,0A91.36,91.36,0,0,1,98.18,262.3Z"/><path class="cls-1" d="M209.71,260.48a57.93,57.93,0,0,1,6.09,0,.1.1,0,0,1,0,.2,58.06,58.06,0,0,1-6.09,0A.09.09,0,0,1,209.71,260.48Z"/><path class="cls-1" d="M120.62,42.06c3.78-2,5.53-6.17,3.14-10,0,0,0,0,0,0,2.37,3.61,1.25,8.74-3.12,10.16A.06.06,0,0,1,120.62,42.06Z"/><path class="cls-1" d="M121,39.64a6.53,6.53,0,0,0,2.26-6.91s0,0,.05,0a5.92,5.92,0,0,1-2.28,7S120.95,39.66,121,39.64Z"/><path class="cls-1" d="M120.32,37.53a4.87,4.87,0,0,0,1.51-2.22c0-.07.13-.05.12,0a2.71,2.71,0,0,1-1.52,2.41C120.32,37.77,120.25,37.61,120.32,37.53Z"/><path class="cls-1" d="M82.14,52.08c5.9-1.68,12-2.75,18-4.32s11.85-3.34,17.71-5.22c0,0,.06.05,0,.07q-8.77,2.9-17.69,5.32c-5.88,1.59-11.92,3.42-18,4.28A.06.06,0,0,1,82.14,52.08Z"/><path class="cls-1" d="M83.31,50.39c6.5-2.08,13.37-3.33,20-4.93,0,0,0,0,0,0-6.61,1.69-13.26,3.82-20,5A.05.05,0,0,1,83.31,50.39Z"/><path class="cls-1" d="M81.53,49.45c3-1.25,6.22-2.1,9.33-3.12,0,0,.06.05,0,.07-3.07,1.11-6.1,2.41-9.25,3.29C81.49,49.73,81.39,49.51,81.53,49.45Z"/><path class="cls-1" d="M81,48.53q3.91-1.58,7.85-3.09s0,0,0,0Q85,47.15,81.05,48.75A.12.12,0,1,1,81,48.53Z"/><path class="cls-1" d="M81.27,46.33c1.41-.66,2.87-1.22,4.31-1.81a.15.15,0,1,1,.11.28c-1.45.58-2.89,1.19-4.36,1.69C81.24,46.51,81.18,46.37,81.27,46.33Z"/><path class="cls-1" d="M80.35,44.48c2.59-1.2,5.21-2.33,7.82-3.49.19-.09.36.2.16.29-2.61,1.16-5.2,2.36-7.83,3.47C80.32,44.83,80.16,44.56,80.35,44.48Z"/><path class="cls-1" d="M82.09,42.16A20.65,20.65,0,0,1,84.43,41c.09,0,.17.09.08.14a20.87,20.87,0,0,1-2.32,1.22C82,42.45,82,42.23,82.09,42.16Z"/><path class="cls-1" d="M78.06,43.67c.06-.07.19,0,.16.09-1.38,3.55-1,7.59,2.49,9.79a.05.05,0,0,1-.05.09C77.45,51.8,75.51,46.87,78.06,43.67Z"/><path class="cls-1" d="M79.78,33.68c6.2-2.51,12.6-4.55,18.88-6.82,0,0,0,0,0,0-6.27,2.35-12.47,4.95-18.82,7.05C79.68,34,79.63,33.74,79.78,33.68Z"/><path class="cls-1" d="M79.51,31.73q5.24-1.82,10.49-3.6s0,0,0,0Q84.79,30,79.55,31.87C79.46,31.91,79.42,31.76,79.51,31.73Z"/><path class="cls-1" d="M79.5,30.3a50.15,50.15,0,0,1,6.68-2.6s.07.06,0,.08a50.28,50.28,0,0,1-6.67,2.64A.06.06,0,0,1,79.5,30.3Z"/><path class="cls-1" d="M83.58,33.77c2.54-1,5.21-1.77,7.82-2.61,0,0,0,0,0,0-2.57.94-5.15,2-7.78,2.76C83.51,34,83.47,33.81,83.58,33.77Z"/><path class="cls-1" d="M76.69,31.77a.06.06,0,0,1,0,.12,3,3,0,0,0,.17,5.68,0,0,0,0,1,0,0C73.67,37,73.34,32.39,76.69,31.77Z"/><path class="cls-1" d="M77.17,32.38a0,0,0,0,1,0,0A4,4,0,0,0,77,36.16s0,0,0,0A3.81,3.81,0,0,1,77.17,32.38Z"/><path class="cls-1" d="M116.37,23.35a3.59,3.59,0,0,0,3.43-1.65,3.49,3.49,0,0,0-.67-3.92c-.09-.11,0-.32.17-.22,3,2.07.49,7-2.94,5.92C116.29,23.45,116.29,23.34,116.37,23.35Z"/><path class="cls-1" d="M117.78,21.62c.42-.14.86-.26,1-.73a1.12,1.12,0,0,0-.42-1.21,0,0,0,0,1,0,0,1.15,1.15,0,0,1,.66.59,1.17,1.17,0,0,1,.06.8,1.08,1.08,0,0,1-1.36.77C117.67,21.76,117.71,21.64,117.78,21.62Z"/><path class="cls-1" d="M125.87,54.75c4.25,14.52,7.31,29.47,10.91,44.17l5.35,21.89c.89,3.65,1.8,7.29,2.67,10.95a100.89,100.89,0,0,1,2.43,10.57s0,0,0,0a103.86,103.86,0,0,1-2.82-10.91c-.9-3.65-1.78-7.3-2.67-10.95q-2.67-10.95-5.34-21.89c-3.54-14.57-7.68-29.1-10.57-43.81A0,0,0,0,1,125.87,54.75Z"/><path class="cls-1" d="M122.56,50.94l4.66,18A.12.12,0,0,1,127,69l-4.66-18A.12.12,0,0,1,122.56,50.94Z"/><path class="cls-1" d="M149.33,145.47s.06,0,.07,0a9.76,9.76,0,0,1,.27,1.89,7,7,0,0,1,0,1.91c0,.09-.14.07-.16,0a7.07,7.07,0,0,1-.22-1.91A9.69,9.69,0,0,1,149.33,145.47Z"/><path class="cls-1" d="M149.94,153.59a.05.05,0,0,1,.1,0,15.13,15.13,0,0,1,0,3.79.1.1,0,0,1-.19,0A15.14,15.14,0,0,1,149.94,153.59Z"/><path class="cls-1" d="M152.82,161.4c0-.07.12-.05.13,0a13.58,13.58,0,0,0,.33,2.84,16.12,16.12,0,0,0,1.17,2.61c.05.12-.09.25-.19.14A6.92,6.92,0,0,1,152.82,161.4Z"/><path class="cls-1" d="M129.59,180.93a49.51,49.51,0,0,1,17.78-5.7s0,.05,0,.06a66.32,66.32,0,0,0-17.67,5.86C129.57,181.22,129.44,181,129.59,180.93Z"/><path class="cls-1" d="M152.7,193c.5,3.07,1,6.18,1.19,9.28a0,0,0,0,1-.08,0c-.59-3.06-.88-6.19-1.17-9.28C152.64,193,152.69,193,152.7,193Z"/><path class="cls-1" d="M329.56,257.25a45.21,45.21,0,0,0-24.73-18.8c.14-6.22.06-12.43-.34-18.64q-.19-3-.48-6.06l0-3.16c0-1.62,0-3.24-.07-4.86a17.6,17.6,0,0,0-.24-4.11,10.33,10.33,0,0,0,3.43-.65c1.65-.66,3.23-2.18,3.18-4.09a2.89,2.89,0,0,0-1.83-2.74c-1.68-1.17-4.5-1.36-6.21-1.63a110.75,110.75,0,0,0-15.38-1.38c-2.75-.05-5.5,0-8.25.13a36.79,36.79,0,0,0-6.12.61,3,3,0,0,0-1.78.23c-2.88.84-4.09,5.18-2.34,7.72a6.45,6.45,0,0,0,5.12,2.46,12.84,12.84,0,0,0,2.06-.06l0,0a16.76,16.76,0,0,1,1.23,3.1c.36,4.92,1,9.83,1.29,14.77s.37,9.88.32,14.82c-2.36,3.21-6,5.15-9.45,7a54,54,0,0,0-10.24,6.93l-.72.65-.57.41a30.26,30.26,0,0,0-9.58,12.74,47.57,47.57,0,0,0-3.12,7.32c-5.52,16.76-.55,36.44,12.88,48.06a44.42,44.42,0,0,0,23.48,10.39,39.42,39.42,0,0,0,7.22.22A50.24,50.24,0,0,0,311,323.75a47.76,47.76,0,0,0,14.82-11.3,32.45,32.45,0,0,0,5.37-6c4.26-6.31,6.1-14.13,6.21-21.78,0-.08,0-.16,0-.25A44.1,44.1,0,0,0,329.56,257.25Zm-51.18-20.39v.34q-.7.66-1.43,1.25A15,15,0,0,0,278.38,236.86Zm-17.82,12.54c.31-.26.62-.51.94-.75,4.81-2.77,10.2-4.73,14.55-8.1a8.11,8.11,0,0,1,3.28-.57.47.47,0,0,0,.16,0,.57.57,0,0,0,.92-.47q-.15-2.79-.31-5.57h0l0-.08a.33.33,0,0,0,0-.32c0-.42,0-.84,0-1.26.17-4.32,0-8.71-.24-13-.17-3.14-.43-6.27-.8-9.39a38.68,38.68,0,0,0-1.37-8,26.92,26.92,0,0,0,4.6-.56.33.33,0,0,0,.23-.37.56.56,0,0,0-.49-.74l-.39,0a.35.35,0,0,0-.15,0,51,51,0,0,0-5.12,0,29.44,29.44,0,0,1-4,.27,6.75,6.75,0,0,1-1.33-.75,4.54,4.54,0,0,1-2.14-4.26,3.82,3.82,0,0,1,.1-.46,6.22,6.22,0,0,1,3.16-2.38c3.15.19,6.46-.37,9.59-.44,3.93-.1,7.86,0,11.78.3A86.55,86.55,0,0,1,305.66,194c2.47.54,4.59,2.69,2.3,5.07a4,4,0,0,1-.43.38,6,6,0,0,1-1.75.66c-2,.45-4.3.11-6.36,0-4-.13-8.17-.58-12.15-.11-.33,0-.48.56-.08.64a68.26,68.26,0,0,0,10.27.69c1.25,0,2.61.19,4,.26.07,3.05.77,6.15,1.1,9.18q.4,3.66.66,7.33l0,2.21q.11,8.2.22,16.4a1.57,1.57,0,0,1-1,.74l-.34.06a10.72,10.72,0,0,0-3.37-.42l-.09,0a1,1,0,0,0-.58.09H298a.22.22,0,0,0-.17.19c-.46.48-.44,1.38.37,1.49a42.19,42.19,0,0,1,5.28,1.12v.19a.43.43,0,0,0,.86.07q1.55.47,3.06,1.06c.34.16.69.32,1,.46a61.91,61.91,0,0,1,13.6,9A45.17,45.17,0,0,1,332,265.35l-1.54,0a20.64,20.64,0,0,0-3.78-7.35s-.12,0-.08.07a23.63,23.63,0,0,1,3.25,7.3l-1.79,0a34.84,34.84,0,0,0-3.8-7.25A31,31,0,0,0,312.8,248a.05.05,0,0,0-.05.09A33.89,33.89,0,0,1,324,258.64a29.45,29.45,0,0,1,3.29,6.8l-2.66.05c-2.29-6.53-7.61-12.39-13.16-16a33.66,33.66,0,0,0-25.84-4.52c-.05,0,0,.09,0,.08a34.93,34.93,0,0,1,25.62,4.8,33.44,33.44,0,0,1,8.7,8.27,36.16,36.16,0,0,1,4.05,7.44l-1.49,0A20.76,20.76,0,0,0,312,254.24c-.08,0-.14.08-.07.12a20.89,20.89,0,0,1,9.87,11.2q-15.84.31-31.68.51c-13.41.17-26.89-.12-40.29.35A48.58,48.58,0,0,1,263.3,251a49.17,49.17,0,0,1,21.12-8.66s0-.07,0-.06c-14.27,1.47-28.48,11.17-35,24.14l-1.65.06A47.41,47.41,0,0,1,260.56,249.39Zm54.82,70.45A46.56,46.56,0,0,1,301.21,326a71.7,71.7,0,0,0,7.4-3c3-1.42,6-2.93,9-4.65C316.86,318.84,316.13,319.36,315.37,319.85Zm19.27-26.37a45.08,45.08,0,0,1-6.16,13.45c-4.23,5.29-10.1,9-16.23,12.19-8.33,4.36-17.16,8-26.73,7.85a41.79,41.79,0,0,1-38.92-28.6,60,60,0,0,1-.84-23.7,53.13,53.13,0,0,1,1.47-6.84l.16-.39,1.55.05c-.22.49-.44,1-.64,1.47,0,.07.07.14.11.06q.4-.77.81-1.52c13.6.41,27.3-.09,40.9-.25q16.07-.19,32.14-.49a32.29,32.29,0,0,1,1,3.59.09.09,0,0,0,.17,0,15.33,15.33,0,0,0-.53-3.58l1.62,0,.87,2.14a.06.06,0,0,0,.12,0,20.85,20.85,0,0,0-.5-2.12l2.67-.05c.6,1.91,1.1,3.88,1.61,5.91a.06.06,0,0,0,.11,0,19.36,19.36,0,0,0-1-5.91l1.68,0c.23.94.43,1.91.62,2.91,0,.09.15.07.16,0a13,13,0,0,0-.2-2.9l1.77,0a45.44,45.44,0,0,1,2,6.5A47.12,47.12,0,0,1,334.64,293.47Z"/><path class="cls-1" d="M267.35,321.15c-7.75-4.93-14.19-11.17-17.95-19.68a42.74,42.74,0,0,1-1.22-30.13s0,0,0,0a40.36,40.36,0,0,0,.6,29.8c3.54,8.41,10.17,16.27,18.53,20.16A.08.08,0,0,0,267.35,321.15Z"/><path class="cls-1" d="M261.07,313c-2.58-2.65-5.17-5.08-7.18-8.23a39.07,39.07,0,0,1-4.42-10,.08.08,0,0,0-.15,0c1.4,6.85,5.63,14.47,11.65,18.31C261.06,313.18,261.14,313.07,261.07,313Z"/><path class="cls-1" d="M259.88,307.89c-1-1.21-2.23-2.2-3.26-3.38a29.77,29.77,0,0,1-3-4.14.24.24,0,0,0-.41.24c1.59,2.66,3.76,5.93,6.51,7.49C259.86,308.17,260,308,259.88,307.89Z"/><path class="cls-1" d="M260.11,306.08a12,12,0,0,0-2.11-2.37c-.81-.83-1.66-1.64-2.49-2.46-.11-.11-.27.06-.17.17.78.87,1.54,1.76,2.33,2.62a11.94,11.94,0,0,0,2.25,2.23C260,306.35,260.17,306.2,260.11,306.08Z"/><path class="cls-1" d="M331.2,273.14c0-.07-.13-.06-.13,0,.6,6.06.66,11.75-.81,17.72a46,46,0,0,1-7.51,16.08,44.38,44.38,0,0,1-31.36,17.61A48.25,48.25,0,0,1,271.13,322c-.09,0-.15.11-.06.15,11.25,4.83,24.86,4,35.83-1.22A44.2,44.2,0,0,0,330,293.66C331.88,287.23,332.73,279.75,331.2,273.14Z"/><path class="cls-1" d="M327.67,279.48a.05.05,0,0,0-.1,0c-.67,12.76-5.7,24.9-15.27,33.6h0C321.87,304.81,328.09,292.3,327.67,279.48Z"/><path class="cls-1" d="M333.54,275.36a.12.12,0,0,0-.24,0c.11,3.07.48,6.06.36,9.15a44.12,44.12,0,0,1-1.51,10c-1.73,6.37-4.91,11.75-8.7,17.08,0,0,0,0,0,0,4.37-4.65,7.26-10.91,9-17S335.17,281.43,333.54,275.36Z"/><path class="cls-1" d="M250.08,270.94a.08.08,0,0,0-.15,0,35.08,35.08,0,0,0-1.4,15.31c0,.08.14.06.14,0,0-2.44-.06-4.87.14-7.31C249,276.19,249.62,273.6,250.08,270.94Z"/><path class="cls-1" d="M276.27,246.66a40.13,40.13,0,0,0-22.92,17.27s0,.07.06,0a41.61,41.61,0,0,1,22.87-17.28A0,0,0,0,0,276.27,246.66Z"/><path class="cls-1" d="M284.83,322c-7.77-.42-14.79-2.23-21.3-6.65-.06,0-.11.05-.05.09,6,4.41,13.83,7.22,21.35,6.69A.07.07,0,0,0,284.83,322Z"/><path class="cls-1" d="M272.06,316c-1.33-.68-2.83-1-4.2-1.64a29,29,0,0,1-4-2.17c-.08-.05-.15.07-.07.13,2.3,1.67,5.27,3.65,8.19,3.91A.12.12,0,0,0,272.06,316Z"/><path class="cls-1" d="M251.58,281A51.12,51.12,0,0,1,253,270.69a0,0,0,0,0-.06,0c-1.72,6.33-2.56,13.61-.86,20,0,.08.15.07.14,0A90.68,90.68,0,0,1,251.58,281Z"/><path class="cls-1" d="M300.76,209.82s-.07,0-.07,0c.69,7.05.66,14.13,1.14,21.18a.07.07,0,0,0,.15,0C302.39,224,301.57,216.77,300.76,209.82Z"/><path class="cls-1" d="M299.07,217.56h0c.33,5.9.56,11.83,1.12,17.71,0,.08.14.09.13,0C300.08,229.36,299.52,223.45,299.07,217.56Z"/><path class="cls-1" d="M297.25,223.26c0-.19-.31-.19-.29,0,.32,4.28.62,8.56,1,12.84,0,.19.32.2.31,0C297.94,231.81,297.58,227.53,297.25,223.26Z"/><path class="cls-1" d="M295.83,230.59s-.07,0-.06,0c.07,1.83.09,3.67.26,5.5,0,.2.32.2.31,0C296.24,234.26,296,232.43,295.83,230.59Z"/><path class="cls-1" d="M281.55,218a101.84,101.84,0,0,0-1.69-15.18c0-.2-.38-.16-.36,0,.49,5.19,1.35,10.32,1.69,15.53s0,10.43.34,15.62a.09.09,0,0,0,.17,0C282.32,228.83,281.87,223.27,281.55,218Z"/><path class="cls-1" d="M282.49,214.47a.12.12,0,0,0-.23,0c.13,2.72.15,5.42.2,8.14,0,.14.22.18.25,0A19.86,19.86,0,0,0,282.49,214.47Z"/><path class="cls-1" d="M273.65,199a3.19,3.19,0,0,1-2.87-2.13,3,3,0,0,1,1.45-3.27s0-.09,0-.07a3,3,0,0,0-1.76,3.43,2.91,2.91,0,0,0,3.21,2.18C273.72,199.1,273.72,199,273.65,199Z"/><path class="cls-1" d="M305.82,195.48c-1.52,2.95-5.19,2.53-8,2.47l-7.93-.18-7.54-.17-4-.07-2,0c-.52,0-4.37,0-3.18-1.59,0,0,0-.08-.06,0-1.21,1.23.63,1.88,1.66,2,4.18.4,8.49.25,12.69.36s8.45.33,12.66.31c2.37,0,4.94-.46,5.84-2.94C306,195.45,305.87,195.38,305.82,195.48Z"/><path class="cls-1" d="M311.94,245c-5.12-3.8-12-4.53-18.16-3.75-.06,0-.07.11,0,.1,6.48-.64,12.24,1.27,18.09,3.77A.07.07,0,0,0,311.94,245Z"/><path class="cls-1" d="M267.48,271.44a.14.14,0,0,0-.14.14c0,.29.21.54.25.83a1.4,1.4,0,0,1-.33,1.17,1.42,1.42,0,0,1-1.05.41,1.09,1.09,0,0,1-1.11-.83s-.07,0-.06,0c0,.31,0,.54.23.77a1.61,1.61,0,0,0,.59.36,1.68,1.68,0,0,0,2.32-1.66C268.18,272.22,268,271.48,267.48,271.44Z"/><path class="cls-1" d="M273.47,271.41c0-.28-.46-.36-.51-.07l0,.11c-.05,0-.1,0-.09.09s0,.29,0,.43a1.09,1.09,0,0,0,0,.21c0,.27.4.2.48,0A2.27,2.27,0,0,0,273.47,271.41Z"/><path class="cls-1" d="M273,276.74a1.36,1.36,0,0,0-.58-.7c-.2-.12-.57-.24-.74,0a.16.16,0,0,0,0,.18c.13.26.49.29.64.57a.62.62,0,0,1-.19.84c-.64.43-1.41-.46-1-1.07.06-.1-.09-.21-.16-.12a1.2,1.2,0,0,0-.16,1.5,1.28,1.28,0,0,0,2.23-1.17Z"/><path class="cls-1" d="M277.51,271.76a.17.17,0,0,0-.17.22.53.53,0,0,1,0,.1s0,0,0,0a.64.64,0,0,0,0,.11s0,.07,0,.1-.07.2-.13.21-.26-.27-.15-.38-.12-.58-.37-.36a.8.8,0,0,0,.64,1.37.79.79,0,0,0,.62-.65A.56.56,0,0,0,277.51,271.76Z"/><path class="cls-1" d="M261.5,269.87c-.07-.27-.54-.31-.58,0V270h0l0,0h0a.47.47,0,0,1,.21-.59c.16-.08,0-.37-.13-.3a1,1,0,0,0-.57,1.28C260.7,271,261.65,270.46,261.5,269.87Z"/><path class="cls-1" d="M263.63,278.54c-.11-.87-.91-1.84-1.85-1.6-.11,0-.15.2,0,.25a1.82,1.82,0,0,1,1.23,1.29,1.16,1.16,0,0,1-1,1.33,1.36,1.36,0,0,1-.87-2.53c.07,0,0-.14-.06-.1a1.86,1.86,0,0,0-1,2,1.71,1.71,0,0,0,2,1.23A1.77,1.77,0,0,0,263.63,278.54Z"/><path class="cls-1" d="M267.76,282.47c-.07-.18-.36-.28-.46-.06a1.14,1.14,0,0,0-.08.46.22.22,0,0,1-.16-.39c.22-.2-.11-.51-.33-.32a.73.73,0,0,0,.15,1.21.78.78,0,0,0,.71,0,.38.38,0,0,0,.19-.35A1.29,1.29,0,0,0,267.76,282.47Z"/><path class="cls-1" d="M283.71,278.23c-.51-.64-2-1.19-2.41-.2,0,.09,0,.23.13.22a1.86,1.86,0,0,1,1.45.23,1.2,1.2,0,0,1-.1,1.81,1.52,1.52,0,0,1-1.84.19,1.12,1.12,0,0,1,0-1.92c.18-.09.06-.41-.14-.33a1.63,1.63,0,0,0-.78,2.43,2.21,2.21,0,0,0,3,.47A2.07,2.07,0,0,0,283.71,278.23Z"/><path class="cls-1" d="M285.23,271.3l0,0,0,0a.44.44,0,0,0-.12-.11.21.21,0,0,0-.3.13.31.31,0,0,0,0,.06l0,.06s0,.13,0,.16-.16,0-.15-.11c.05-.31-.41-.44-.48-.13a.63.63,0,0,0,.77.76.64.64,0,0,0,.41-.42A.43.43,0,0,0,285.23,271.3Z"/><path class="cls-1" d="M285.21,271.26s0-.07,0,0Z"/><path class="cls-1" d="M292,276.43c-.22-.51-1.27-1.5-1.78-.81a.18.18,0,0,0,0,.22c.13.16.35.17.53.27a1.08,1.08,0,0,1,.46.51.79.79,0,0,1-.44,1.06c-1,.41-1.56-.87-.85-1.49.31-.28-.14-.71-.46-.45a1.72,1.72,0,0,0-.4,2.08,1.58,1.58,0,0,0,2.09.62A1.53,1.53,0,0,0,292,276.43Z"/><path class="cls-1" d="M294,271.17l0,0a.12.12,0,0,0-.25,0l0,0a.23.23,0,1,0,.32,0Z"/><path class="cls-1" d="M289.49,283.74a.2.2,0,0,0-.09.22c0,.16.17.25.15.42a.23.23,0,0,1-.3.22.5.5,0,0,1-.37-.43,1,1,0,0,1,0-.4c0-.09,0-.17.12-.21a.67.67,0,0,1,.29,0,.08.08,0,0,0,0-.15.9.9,0,0,1-.36-.12.19.19,0,0,0-.22,0,1.24,1.24,0,0,0-.52,1.31,1.13,1.13,0,0,0,1.17.82.91.91,0,0,0,.85-.94C290.25,284.08,289.92,283.51,289.49,283.74Z"/><path class="cls-1" d="M279.63,288.09c-.39-.77-1.79-1.79-2.65-1.14a.15.15,0,0,0,0,.26c.28.08.57,0,.85.12a1.86,1.86,0,0,1,1,.74,1.55,1.55,0,0,1-.43,2.16A1.73,1.73,0,0,1,276,288a.12.12,0,0,0-.21-.12,2.2,2.2,0,0,0,.19,2.7,2.27,2.27,0,0,0,3.69-2.51Z"/><path class="cls-1" d="M281,269.16c0-.28-.45-.38-.51-.07a2.72,2.72,0,0,0,0,.37.67.67,0,0,1-.46-.08c-.18-.1-.33.13-.21.28a1,1,0,0,0,1,.27.29.29,0,0,0,.21-.27A4.05,4.05,0,0,0,281,269.16Z"/><path class="cls-1" d="M257.44,274.33c-.24-.62-1.22-1.43-1.88-.9a.14.14,0,0,0,0,.22c.49.22,1,.24,1.22.8a1,1,0,0,1-.53,1.28,1.12,1.12,0,0,1-1.15-1.87c.08-.07,0-.19-.12-.12a1.62,1.62,0,0,0-.39,2,1.48,1.48,0,0,0,1.94.58A1.54,1.54,0,0,0,257.44,274.33Z"/><path class="cls-1" d="M259,289.91a.29.29,0,0,0-.49.28,1.88,1.88,0,0,1,.11.44l-.34-.33c-.3-.29-.76.18-.45.46l.76.73a.33.33,0,0,0,.51-.07A1.37,1.37,0,0,0,259,289.91Z"/><path class="cls-1" d="M303.68,276.33a.19.19,0,0,0,0,.29c.28.25.62.4.64.83s-.62.79-1.07.63c-1.22-.44-.66-2.19.16-2.71.11-.07,0-.25-.11-.18a2.25,2.25,0,0,0-1.39,2,1.72,1.72,0,0,0,1.63,1.71,1.49,1.49,0,0,0,1.56-1.45C305,276.84,304.35,275.92,303.68,276.33Z"/><path class="cls-1" d="M299.92,290.74a.75.75,0,0,0-.64-.37h0a.41.41,0,0,0-.45,0,.44.44,0,0,0-.16.59l.47.65a.44.44,0,0,0,.68.09A.77.77,0,0,0,299.92,290.74Z"/><path class="cls-1" d="M298.87,320.57a27,27,0,0,1-9,1.11s0,0,0,0a19.54,19.54,0,0,0,9-1.06C299,320.64,298.93,320.55,298.87,320.57Z"/><path class="cls-1" d="M281.37,237.49a5.92,5.92,0,0,0-.09-1,.12.12,0,0,0-.23,0,5.92,5.92,0,0,0-.09,1,2.16,2.16,0,0,0,.08.92.14.14,0,0,0,.24,0A2.16,2.16,0,0,0,281.37,237.49Z"/><path class="cls-1" d="M300.12,203.3a0,0,0,0,0,0,0,3.87,3.87,0,0,0-.05,2.88.07.07,0,0,0,.13,0A10.45,10.45,0,0,1,300.12,203.3Z"/><path class="cls-1" d="M297.77,202.9c0-.07-.12-.08-.12,0,.09,2.17.27,4.37.54,6.52,0,.06.11,0,.11,0C298.22,207.25,298,205.05,297.77,202.9Z"/><path class="cls-1" d="M302,194.87c-.73-1-2.33-.85-3.37-.62,0,0,0,0,0,0a4,4,0,0,1,1.86.16c.49.15.89.47,1.37.6C301.91,195.06,302,195,302,194.87Z"/><path class="cls-1" d="M197.18,83.44c-1.23,0-1.39,2.07-.14,2.17a21.62,21.62,0,0,1,6.54,1.57c-3,.56-6,1.5-8.89,2.26-2.13.55-4.36,1-6.5,1.68l.07-.19a1.86,1.86,0,0,0-3.34-1.63c-2.86,4.33-3.67,10.05-3.31,15.14A28.61,28.61,0,0,0,187,118.93c3.41,4.71,8,7.81,12.9,10.66a56.93,56.93,0,0,0-5.24,7.11,25.88,25.88,0,0,0,.95,29.41c3.24,4.42,7.76,7.26,12.7,9.46-6.15,7.11-11.68,14.8-12.31,24.58-.4,6.17,1.28,12.49,5.73,16.95,3.85,3.86,10,6.51,15.39,4.51a1.11,1.11,0,0,0-.42-2.16,17.84,17.84,0,0,1-7.56-.95c6.76-1.11,13.45-2.6,20.14-4.07a31.55,31.55,0,0,1-1.53,3c-.29.49.47,1,.83.55a24.9,24.9,0,0,0,5-10.27.51.51,0,0,0,.12-.57A27.62,27.62,0,0,0,230,186.87,29.81,29.81,0,0,0,217,176c-1.22-.56-2.48-1.07-3.74-1.58,1.07-1.2,2.14-2.39,3.19-3.59,3.6-4.15,6.83-8.88,7.91-14.37a18.73,18.73,0,0,0-4-15.18C216,135.69,209.9,132.43,204,129c4.88-5.71,10-11.24,12.3-18.61a20.79,20.79,0,0,0-19.08-26.9Zm32.66,129.75c-7.07,1.6-14.14,3.17-21.11,5.16a15.1,15.1,0,0,1-3-1.62c1.47-.26,2.94-.61,4.39-.9l7.18-1.44c4.37-.88,8.73-1.75,13.08-2.7Q230.13,212.45,229.84,213.19Zm.94-2.69c-4.5.84-9,1.75-13.47,2.67l-6.9,1.41c-1.94.4-4,.7-5.89,1.22-.31-.26-.61-.53-.9-.82a14.73,14.73,0,0,1-1.29-1.47c2.22-.22,4.48-.83,6.64-1.21l8-1.48,14.35-2.65Q231.11,209.35,230.77,210.5Zm.8-3.45-14.52,2.71-7.76,1.45a71.89,71.89,0,0,0-7.56,1.47,16.44,16.44,0,0,1-1.34-2.44c2.42-.32,4.84-1.05,7.19-1.57l8.65-1.91,8.65-1.89,4.47-1a16.23,16.23,0,0,0,2.58-.58A26.82,26.82,0,0,1,231.57,207Zm.36-5a12.45,12.45,0,0,0-2.86.59l-4.46,1-8.63,2-8.64,2c-2.4.54-5,.92-7.33,1.69a19.36,19.36,0,0,1-.85-2.9,67.69,67.69,0,0,0,7.28-1.39l8.68-1.73c5.55-1.11,11.15-2.07,16.67-3.32Q231.92,201,231.94,202.1Zm-.28-3.2c-5.61,1-11.19,2.24-16.77,3.36L206.2,204a68.38,68.38,0,0,0-7.2,1.51,22.07,22.07,0,0,1-.28-3.48c2.45-.46,4.89-1.2,7.3-1.8q4.25-1,8.51-2.05,8-1.89,15.93-3.91A25.46,25.46,0,0,1,231.65,198.89Zm-1.71-6q-7.86,2-15.69,4.07-4.09,1.1-8.2,2.16c-2.42.63-4.92,1.14-7.32,1.88q0-.7.1-1.39c.07-.65.16-1.29.27-1.92a18.81,18.81,0,0,0,3.23-.76l3.7-1q3.83-1,7.69-2t7.74-1.81l3.75-.81a17.65,17.65,0,0,0,3.54-.88A26.72,26.72,0,0,1,229.94,192.91Zm-1.71-3.38a19.39,19.39,0,0,0-3.31.56l-3.76.78q-3.89.83-7.75,1.76t-7.71,1.94c-1.24.33-2.47.66-3.7,1a26.42,26.42,0,0,0-2.65.82,28.31,28.31,0,0,1,1.14-3.78,24.7,24.7,0,0,0,4.93-1l7-1.45,13.93-2.92a.51.51,0,0,0,.29-.16A26.79,26.79,0,0,1,228.24,189.53Zm-5.1-6.17a25.77,25.77,0,0,1,2.8,2.9l-13.79,2.88-6.68,1.4a39.85,39.85,0,0,0-4.48.9,34.64,34.64,0,0,1,1.82-3.62c3.31-.55,6.58-1.67,9.84-2.42,3.46-.79,7-1.39,10.43-2.11Zm-11,1.2a75.06,75.06,0,0,0-8.84,2.38c.74-1.22,1.55-2.41,2.41-3.57,2.15-.25,4.3-.74,6.42-1.13l3.24-.61a9.67,9.67,0,0,0,3-.78.4.4,0,0,0-.18-.74,8.8,8.8,0,0,0-2.85.34l-3.52.66c-1.71.33-3.47.6-5.18,1,.6-.78,1.22-1.54,1.85-2.3,1.12-.09,2.23-.21,3.35-.37s2.47-.09,3.32-.86l0,0a33.27,33.27,0,0,1,6.77,3.9C218.7,183,215.41,183.78,212.16,184.56Zm1.62-6.67c-.64.08-1.29.29-1.89.41-.87.17-1.72.37-2.58.58q.9-1.06,1.82-2.1Zm-.74-7.62-2.68,3a44.63,44.63,0,0,1-5.87-2.81c2-.52,4-1.28,5.92-1.9l1-.32c.63-.15,1.25-.29,1.88-.43s1.4-.22,2.11-.3C214.64,168.46,213.84,169.38,213,170.28Zm3.94-4.82a.55.55,0,0,0-.22,0,19.72,19.72,0,0,0-3.66,1.28c-1.13.41-2.27.8-3.4,1.2-1.35.47-2.74.89-4.11,1.38l-2.13.52a21.2,21.2,0,0,1-2.09-1.56l-.2-.17,9.64-3.26c2.73-.92,5.51-1.75,8.24-2.65A32.59,32.59,0,0,1,217,165.45Zm2.88-4.83c-3.09,1.05-6.16,2.26-9.25,3.32l-10.16,3.49a22.23,22.23,0,0,1-2.3-2.58,54.15,54.15,0,0,0,5.51-1.4q3.31-.93,6.58-2c3.64-1.19,7.23-2.52,10.79-4A21.24,21.24,0,0,1,219.86,160.62Zm1.74-5.84q-.1.78-.26,1.53c-4,1.62-8,3.11-12.07,4.42-3.82,1.23-7.87,2-11.65,3.38a23.52,23.52,0,0,1-1.67-2.77c1.82-.33,3.64-.92,5.4-1.4,2.46-.67,4.91-1.39,7.35-2.15,4.35-1.34,8.75-2.7,13-4.33C221.69,153.9,221.66,154.34,221.6,154.78Zm.1-2.42c-4.51,1.47-9,3.07-13.54,4.41-2.36.7-4.73,1.36-7.1,2-1.85.51-3.8.89-5.63,1.51a23.78,23.78,0,0,1-1.34-3.77,8.28,8.28,0,0,0,2.27-.55l3.29-1q3.71-1.09,7.41-2.2c4.63-1.39,9.42-2.57,14-4.2A14.77,14.77,0,0,1,221.7,152.36Zm-1-4.67c-4.68,1.12-9.3,2.72-13.91,4.07-2.38.7-4.76,1.4-7.13,2.11l-3.56,1.07a8.91,8.91,0,0,0-2.22.77c-.1-.44-.19-.88-.26-1.33a22.15,22.15,0,0,1-.25-2.29,35.19,35.19,0,0,0,5.08-1.31c2.49-.64,5-1.32,7.46-2l7.46-2c2-.54,4.14-.94,6.12-1.63A17.89,17.89,0,0,1,220.73,147.69Zm-1.87-3.63c-2.11.42-4.24,1.17-6.29,1.7l-7.2,1.88c-2.4.63-4.8,1.25-7.19,1.91a42.36,42.36,0,0,0-4.83,1.29,22.17,22.17,0,0,1,.19-2.91,47.35,47.35,0,0,0,4.76-1.34c2.19-.6,4.38-1.17,6.58-1.72s4.23-1,6.35-1.52a45.72,45.72,0,0,0,6.08-1.36A22.89,22.89,0,0,1,218.86,144.06Zm-4.22-4.85c.61.55,1.2,1.13,1.76,1.73A45.23,45.23,0,0,0,211.2,142c-2.22.48-4.43,1-6.63,1.53s-4.21,1.1-6.31,1.69c-1.4.4-3,.71-4.48,1.27a24.14,24.14,0,0,1,.89-3.26,21.3,21.3,0,0,0,3.36-.87c1.79-.47,3.6-.9,5.4-1.34,3.54-.86,7.13-1.47,10.68-2.29ZM213.27,138A97.26,97.26,0,0,0,203.18,140c-1.72.4-3.43.86-5.13,1.34-.91.26-2,.45-3,.83a27.83,27.83,0,0,1,1.41-3,42.86,42.86,0,0,0,6-1.27c2.6-.58,5.29-1.07,7.82-1.89l.13-.06C211.43,136.61,212.36,137.3,213.27,138Zm-4-2.91c-2.36.36-4.72,1-7,1.48-1.52.34-3.24.57-4.83,1,.65-1.06,1.35-2.08,2.09-3.09,2-.49,4.05-1,6-1.6l.11-.05C206.84,133.61,208.06,134.35,209.25,135.13Zm-4.49-2.73c-1.53.33-3,.73-4.56,1.15q1-1.31,2.06-2.59Zm-3.12-4.81c-1.15-.7-2.29-1.43-3.4-2.19,2.36-.62,4.7-1.33,7-2C204.09,124.77,202.86,126.17,201.65,127.58Zm4.59-5.38c-2.92.87-5.86,1.69-8.74,2.67q-1.1-.78-2.15-1.63c2.19-.52,4.37-1.29,6.51-1.88s4.21-1,6.28-1.59Q207.22,121,206.24,122.2Zm3.18-4.24c-1.29.31-2.53.84-3.79,1.26-1.5.5-3,1-4.52,1.42-2.12.67-4.37,1.21-6.49,2-.41-.35-.82-.71-1.22-1.09l-.54-.53c3.24-.87,6.44-2,9.63-3l8.6-2.74Q210.32,116.64,209.42,118Zm2.37-4-9.8,3.18c-3.25,1.06-6.58,2-9.78,3.24a22.71,22.71,0,0,1-1.75-2.17,34.66,34.66,0,0,0,3.91-1.24l6.73-2q3.23-1,6.45-2c1.76-.54,3.67-1,5.39-1.69A28.42,28.42,0,0,1,211.8,113.93Zm1.67-4.14-.07.22a40.3,40.3,0,0,0-6.4,1.83q-3.22,1-6.43,2l-6.43,2a27.13,27.13,0,0,0-4.29,1.34,23.83,23.83,0,0,1-1.26-2.22c4.46-1.14,8.85-2.84,13.22-4.23l7-2.23,3.76-1.2c.51-.16,1-.3,1.57-.46A20.08,20.08,0,0,1,213.47,109.79Zm.83-4.42c-.7.19-1.38.47-2.06.7l-3.75,1.24-7.24,2.39c-4.34,1.44-8.87,2.65-13.13,4.35a24.76,24.76,0,0,1-1.07-2.9c2.11-.49,4.19-1.18,6.27-1.76l7.34-2.07c4.55-1.3,9.21-2.42,13.7-3.93C214.37,104,214.35,104.71,214.3,105.37Zm0-3.37c-4.77,1.17-9.48,2.8-14.18,4.21l-7.58,2.31c-1.9.58-3.85,1.09-5.73,1.75a25.23,25.23,0,0,1-.53-2.55c4.75-1,9.44-2.62,14.11-3.93s9.13-2.41,13.63-3.81A20,20,0,0,1,214.29,102Zm-.55-3.24c-4.57,1.17-9.09,2.63-13.62,3.92s-9.42,2.44-14,4c-.12-1-.21-2-.26-3a39.67,39.67,0,0,0,5.85-1q3.73-.73,7.42-1.59a121.32,121.32,0,0,0,14.15-3.75C213.47,97.8,213.61,98.27,213.73,98.75ZM211.07,93a16,16,0,0,1,1.64,2.82c-4.65,1.2-9.19,2.81-13.86,4q-3.69.91-7.4,1.69c-1.8.38-3.79.58-5.6,1.13q0-1.26.09-2.53A36.85,36.85,0,0,0,191.18,99q3.74-.89,7.45-1.94c2.39-.67,4.75-1.39,7.1-2.19,1.75-.59,3.59-1.14,5.32-1.87Zm-.75-.95c-1.71.54-3.4,1.21-5.11,1.75-2.36.75-4.73,1.48-7.11,2.17s-4.78,1.32-7.18,1.9c-1.56.38-3.29.65-4.88,1.16,0-.05,0-.11,0-.16a28.07,28.07,0,0,1,.69-3.37A80.1,80.1,0,0,0,197.26,93q3-.89,6-1.92a42.41,42.41,0,0,0,4.42-1.54A17,17,0,0,1,210.32,92.06ZM206.92,89c-1.45.46-2.91,1.15-4.3,1.61q-2.88,1-5.79,1.77c-3.29.93-6.62,1.68-9.92,2.55.24-.83.51-1.66.79-2.48,2.45-.45,4.88-1.23,7.26-1.85,3.26-.85,6.68-1.52,9.84-2.68a.56.56,0,0,0,.16-.09A18.25,18.25,0,0,1,206.92,89Z"/><path class="cls-1" d="M382.18,304a.75.75,0,0,0-.53-.53,13.42,13.42,0,0,0-2-2,16.68,16.68,0,0,0-3.19-2.42.53.53,0,0,0-.6,0c-1.1-.4-2.34.51-3.22,1-2.81,1.47-5.59,3-8.37,4.5-5.79,3.13-11.66,6.13-17.19,9.69a.67.67,0,0,0-.34.68.68.68,0,0,0-.36.56c-.72.78.11,2.2.41,3.05.56,1.59,1,3.58,2.08,4.89a.6.6,0,0,0,.22.36,18,18,0,0,0,2.85,1.47c.64.31,1.29.7,2,1-7,12.32-18.94,21-32.2,25.77a101.44,101.44,0,0,1-23.95,5.26,112.24,112.24,0,0,1-12.29.73c-4.45,0-8.64-.92-13-1.68h-.07a.79.79,0,0,0-1.17.74c.22,6.49-.21,13,0,19.47a.52.52,0,0,0,.33.47.4.4,0,0,0,.09.26,36.41,36.41,0,0,0,3.94,3.63c1.34,1.19,2.67,2.4,4,3.59a.91.91,0,0,0,.87.21c17.59,5,38.53-3.83,53.56-12.57q2.62-1.53,5.15-3.22l.49.33c.2.13.44-.18.26-.33l-.34-.27c.89-.61,1.77-1.24,2.64-1.88a.24.24,0,0,0,.29-.21A63.39,63.39,0,0,0,354,355.71c2.92-3.59,5.43-7.52,8-11.35,2.4-3.54,5-7,6.5-11,1,.74,2.12,1.43,3.22,2.08a.17.17,0,0,0,.1.05A57,57,0,0,0,381.6,340c2.92,1,4.17.51,4.23-2.68A127.21,127.21,0,0,0,382.18,304Zm1.34,25.88c.09,1.56.15,3.12.21,4.69a81.5,81.5,0,0,1-4.53-7.5l-.2-3.77a51.35,51.35,0,0,0,4.51,6.39C383.51,329.75,383.51,329.82,383.51,329.88Zm-.11-1.53c-1.47-2.06-3-4.09-4.48-6.15l-.25-4.68a30.78,30.78,0,0,0,4.26,5.58C383.12,324.85,383.28,326.6,383.41,328.35Zm-1.16-10.92c.2,1.53.39,3.06.57,4.6-1.42-1.78-2.88-3.5-4.19-5.38l-.24-4.43A48.66,48.66,0,0,0,382.25,317.44Zm-.16-1.17c-1.26-1.64-2.53-3.27-3.75-4.94,0-.88,0-2.47,0-4.22,1,1.38,2,2.78,3.09,4.11C381.64,312.91,381.87,314.59,382.09,316.27Zm-3.77-13.51c.4.45.82.9,1.22,1.35a5.21,5.21,0,0,0,1.13,1.14c.19,1.64.4,3.27.61,4.9-1-1.23-2-2.43-3-3.63a24,24,0,0,0-.45-4.27Zm-25.71,20.88a13.55,13.55,0,0,0-2.49-.81,12.35,12.35,0,0,0-1.21-3.78c-.18-.47-.39-.93-.6-1.39.85.61,1.79,1.14,2.66,1.66a31.21,31.21,0,0,0,1.21,3l.55,1.35Zm1,.42c-.29-.65-.59-1.3-.88-2l-.78-1.76c-.1-.22-.19-.41-.28-.6h0c.67.42,1.35.85,2,1.26a24.83,24.83,0,0,0,.87,3.53A10.65,10.65,0,0,0,353.62,324.06Zm1.65-.35a1.21,1.21,0,0,0-.11.17c-.24-.83-.48-1.65-.72-2.48a12.37,12.37,0,0,0,1.66.76A2.73,2.73,0,0,0,355.28,323.71Zm-82.89,52.44c1.2-6,1.06-12.37.61-18.42,6.81,3.57,16.1,2.37,23.39,1.69a104.16,104.16,0,0,0,26.53-5.67C337.23,348.45,350,338.82,357,325a1.08,1.08,0,0,0,.12-.45,6.74,6.74,0,0,0,1.4-2.17c.26-.63-.35-1.16-.93-1.2A27.57,27.57,0,0,0,352.7,318a51.11,51.11,0,0,0-4.5-2.79c4.32-2,8.47-4.21,12.65-6.47l6.43-3.48,3.86-2.09c.86-.47,2.3-1.74,3.21-1.76q.76-.83.89.2a5.8,5.8,0,0,1,.64,2.8c.14,1.1.16,2.21.22,3.32q.21,3.73.4,7.46l.79,14.72c-1.43-.77-3-1.41-4.4-2.08a31.7,31.7,0,0,0-5.72-2.29.72.72,0,0,0-1.24.08l-.23.4a.13.13,0,0,0-.13.16v.05c-4.65,8-9.48,15.68-15.94,22.45a92.91,92.91,0,0,1-22.29,17.15A99.2,99.2,0,0,1,316.45,371a.23.23,0,0,0-.27.11C302.33,376.68,286.81,379.19,272.38,376.15Zm8.81,7.32a.91.91,0,0,0-.25-.37,52.27,52.27,0,0,0-6-5,34.42,34.42,0,0,0,5.19,1c1.5,1.58,3,3.17,4.68,4.6Q283,383.62,281.2,383.47Zm4.37.26a61.41,61.41,0,0,0-4.75-4.56c1.11.11,2.23.15,3.36.17a33.8,33.8,0,0,0,4.52,4.44C287.66,383.78,286.61,383.77,285.57,383.73Zm4.06,0c-.75-.56-1.52-1.09-2.22-1.7a39.25,39.25,0,0,1-2.83-2.72c1.17,0,2.34,0,3.51-.09a41.42,41.42,0,0,0,4.7,4.39C291.73,383.7,290.68,383.75,289.63,383.76Zm4.21-.18c-.82-.64-1.66-1.26-2.45-1.93s-1.81-1.6-2.69-2.43c1.48-.09,3-.25,4.44-.44a50.25,50.25,0,0,0,5.12,4.34C296.78,383.33,295.31,383.48,293.84,383.58Zm5.35-.57c-1.72-1.49-3.56-2.87-5.34-4.31,1.24-.17,2.47-.36,3.69-.57a30,30,0,0,0,5.14,4.26C301.52,382.63,300.36,382.84,299.19,383Zm4.55-.83c-1.88-1.35-3.7-2.74-5.53-4.17l2.17-.39,1.14-.24c.78.68,1.61,1.32,2.42,2s1.79,1.43,2.69,2.13C305.66,381.74,304.7,382,303.74,382.18Zm5-1.29c-.5.15-1,.28-1.5.42q-1.23-1-2.48-2l-1.65-1.27-.72-.55-.41-.23c1-.22,2-.46,3.07-.71a45.73,45.73,0,0,0,4.83,4Zm1.93-.61c-1.7-1.25-3.38-2.52-5-3.87,1.13-.29,2.26-.61,3.38-.94,1.57,1.3,3.21,2.56,4.89,3.71C312.87,379.57,311.78,379.94,310.69,380.29Zm4-1.38c-1.56-1.29-3.21-2.52-4.89-3.66,1.13-.34,2.26-.72,3.38-1.1a54.45,54.45,0,0,1,5,3.44C317,378,315.87,378.49,314.71,378.91Zm4.07-1.56a24.26,24.26,0,0,0-4.82-3.47c1.24-.44,2.46-.9,3.68-1.39,1.53,1.12,3,2.29,4.51,3.44Q320.47,376.67,318.77,377.35Zm4-1.72a38.56,38.56,0,0,0-4.53-3.41q2.3-.94,4.55-2c1.4,1.14,2.79,2.35,4.26,3.4C325.69,374.32,324.26,375,322.82,375.63Zm4.79-2.26c-1.41-1.18-2.95-2.24-4.45-3.31,1-.47,2-1,2.92-1.45l.05.06a.12.12,0,0,0,.18,0c1.39,1.09,2.83,2.15,4.31,3.11C329.64,372.34,328.63,372.87,327.61,373.37Zm5-2.62-1.37.74c-1.48-1.12-3-2.17-4.61-3.15l.56-.29c.86-.46,1.72-.94,2.58-1.43a18.8,18.8,0,0,0,4.54,3.14C333.71,370.1,333.15,370.44,332.59,370.75Zm2.28-1.33a32.65,32.65,0,0,1-4.7-3c1.05-.61,2.09-1.25,3.13-1.91,1.42,1.09,2.83,2.2,4.29,3.25C336.69,368.31,335.78,368.88,334.87,369.43Zm3.22-2c-1.45-1.09-2.95-2.11-4.43-3.15,1-.63,2-1.29,2.94-2,.49.32,1,.83,1.32,1.1.5.4,1,.81,1.49,1.22s.83.67,1.25,1C339.81,366.21,339,366.81,338.09,367.38Zm3-2.11-2.35-1.83A21.33,21.33,0,0,0,337,362c1.16-.81,2.3-1.66,3.44-2.52,1.42,1,2.84,2,4.3,3Q342.95,363.91,341.11,365.27Zm3.93-3.11c-1.43-1-2.89-1.94-4.36-2.88.85-.66,1.69-1.33,2.52-2a41.8,41.8,0,0,1,3.85,3.11Q346.06,361.28,345,362.16Zm2.33-2.1a24.39,24.39,0,0,0-3.85-3.07q1.6-1.32,3.13-2.72a33,33,0,0,0,3.85,2.59C349.5,358,348.46,359,347.38,360.06Zm4.5-4.72c-.35.42-.73.81-1.09,1.22-1.3-.82-2.6-1.64-3.86-2.52q1.31-1.19,2.58-2.44a.21.21,0,0,0,.05.07A16.19,16.19,0,0,0,353,354Q352.43,354.68,351.88,355.33Zm1.36-1.69a19.69,19.69,0,0,1-3.39-2.29l-.07,0q1.89-1.87,3.67-3.84a11.74,11.74,0,0,0,2.63,2.25C355.16,351.06,354.23,352.37,353.24,353.65Zm3.12-4.31a13.58,13.58,0,0,1-2.67-2.12c1.15-1.29,2.26-2.61,3.33-4q1.2.75,2.43,1.48C358.42,346.27,357.4,347.81,356.35,349.34ZM360,344l-.21.32q-1.17-.75-2.36-1.48c.74-.94,1.45-1.9,2.14-2.87a21.4,21.4,0,0,0,2.09,1.63C361.06,342.36,360.5,343.16,360,344Zm1.92-2.77c-.72-.51-1.43-1-2.11-1.59q1.09-1.54,2.1-3.12c.64.61,1.29,1.22,2,1.79C363.2,339.26,362.54,340.23,361.87,341.19Zm2.26-3.4c-.64-.6-1.32-1.17-2-1.74.75-1.19,1.46-2.39,2.14-3.61a18.12,18.12,0,0,0,1.5,2.34A31.34,31.34,0,0,1,364.13,337.79Zm2.65-5.46a20.06,20.06,0,0,1-.76,1.92c-.53-.73-1-1.47-1.5-2.24.58-1.05,1.12-2.12,1.65-3.2.26,1,.53,2.1.88,3.11A1,1,0,0,0,366.78,332.33Zm1.92,0a1,1,0,0,0-1.07-.66c-.36-1.17-.77-2.32-1.16-3.48.16-.34.33-.67.48-1a23,23,0,0,0,2.15,1.22c.52,1.59,1,3.21,1.65,4.79C370.07,332.89,369.39,332.6,368.7,332.32Zm2.87,1.19c-.53-1.62-1.18-3.22-1.81-4.79.78.38,1.56.74,2.33,1.11a.11.11,0,0,0-.07.15c.54,1.47,1,3,1.62,4.44Zm2.67,1.16c-.6-1.61-1.3-3.18-2-4.76l.32.15c1.14.55,2.27,1.16,3.42,1.71.32,1.39.68,2.78,1.1,4.15Zm5.28,2.27-1.66-.7c-.37-1.41-.81-2.82-1.28-4.21a18.06,18.06,0,0,0,1.81.72,1,1,0,0,0,.29,0,47.58,47.58,0,0,0,2.62,4.93C380.69,337.5,380.08,337.18,379.52,337Zm2.94,1.09c-.54-.81-1.11-1.61-1.61-2.42-.6-1-1.16-2-1.71-3a1,1,0,0,0,.21-1.35,1,1,0,0,0,.06-.41l-.17-3.12a60.73,60.73,0,0,0,4.53,7.91v.1C383.81,337.32,384.41,338.31,382.46,338Z"/><path class="cls-1" d="M314.47,101.82c-.72-3.86-4.72-7.93-8.77-7.19a.6.6,0,0,0-.39-.21c-5.17-.76-9.27,4.14-9,9.09a9.42,9.42,0,0,0,10.42,8.81A9.11,9.11,0,0,0,314.47,101.82Zm-8,8.69c-9.42.87-11.41-13.06-2.38-14.52a.54.54,0,0,0,.35.07C314.14,94.67,316.3,109.61,306.5,110.51Z"/><path class="cls-1" d="M305.45,91.61a.57.57,0,0,0-.54-.28A12.3,12.3,0,0,0,293,103.77c.1,7.67,7.59,13,15,11.8C322.49,113.19,319.38,90.7,305.45,91.61ZM308,114c-6.44.91-13.53-3.25-13.61-10.27-.07-6.37,4.61-10.38,10.57-11.13a.73.73,0,0,0,.27-.09c5,.71,9.76,3.13,11.25,8.44A10.39,10.39,0,0,1,308,114Z"/><path class="cls-1" d="M333.56,108a13.29,13.29,0,0,0-3.23-.77c-1.08-.26-2.15-.53-3.25-.71a4.34,4.34,0,0,0,.75-2.83,8.18,8.18,0,0,0-.26-1.74c0-.13-.05-.28-.07-.43a10.23,10.23,0,0,0,5.62-1.67,1.52,1.52,0,0,0,.81-1.23c.18-1.33-.38-3.09-.54-4.42s.09-3.87-1.8-4a19.63,19.63,0,0,0-3.81.54c-1.13.16-2.26.35-3.38.54a5.16,5.16,0,0,0-1-2.51A6.12,6.12,0,0,0,321.75,87c1.37-2.25,2.63-4.54,3.89-6.85a1,1,0,0,0-.37-1.41c-2.32-1.33-4.73-2.54-7.09-3.79a1,1,0,0,0-1.49.6c-.62,2.21-1.46,4.33-2.2,6.5a7.37,7.37,0,0,0-3.37-1.15,6.41,6.41,0,0,0-2,0c.06-1.48-.15-3-.23-4.47-.05-.93.18-2.42-.68-3.06s-2.42-.42-3.41-.46c-1.66-.08-3.32-.08-5,0a1,1,0,0,0-1,1c0,2.42-.3,5.32.31,7.75a7.73,7.73,0,0,0-4.54,1.57,4.28,4.28,0,0,0-.87.77,26.07,26.07,0,0,0-6.1-5.8,1,1,0,0,0-1.18.15c-1.38,1.65-2.76,3.3-4.14,5-.7.84-1.63,1.74-1.37,2.93s1.89,2,2.85,2.65a37.93,37.93,0,0,0,3.83,2.51,7,7,0,0,0-3.08,5.36c-1.24-.16-2.48-.22-3.72-.29-1-.06-2.42-.45-3.3,0-1.64.85-1.87,4-1.95,5.6s-.48,4.48,1.22,5.3a9.26,9.26,0,0,0,2.88.42,18.44,18.44,0,0,0,4,0c-.74,2.19.37,4.82,1.67,6.74-1.73,1.46-3.54,2.85-5.3,4.27a.43.43,0,0,0-.11.6.61.61,0,0,0-.05.42,8.81,8.81,0,0,0,2.3,4.18c.92,1,2.5,2.51,3.92,2.45a.77.77,0,0,0,.32-.1.7.7,0,0,0,.85,0c.92-.78,1.81-1.63,2.66-2.48.26-.26.89-1.23,1-1.3q-.06-.49.28,0,.21.19.44.36a8,8,0,0,0,4.86,1.67,10,10,0,0,0-.25,1.82c-.19,1.75-.27,3.53-.38,5.29a1.08,1.08,0,0,0,1.06,1.06q4.24.33,8.48.54a1.07,1.07,0,0,0,1.05-1.05,25.4,25.4,0,0,0-.31-7.85,6.54,6.54,0,0,0,2.34,0c.77-.13,2.41-.49,2.72-1.4.88,2.27,2.4,4.37,3.38,6.61a1,1,0,0,0,1.29.34c1.59-.83,3.17-1.7,4.72-2.61.75-.44,2.43-1.06,2.69-2.08s-1-2.38-1.44-3.18c-.66-1.1-1.26-2.25-2-3.3,1.84-.52,4.35-1.86,5.12-3.58,1.73,1.13,4.39,2.54,6.27,2.15,1.64-.34,2.26-3.19,2.68-4.54S335.32,109,333.56,108Zm-1.18,3.68a19.46,19.46,0,0,1-.74,2.26c-.43,1.06-.41,1.74-1.54,1.48a14,14,0,0,1-4.79-2.22.85.85,0,0,0-.43-.16,1,1,0,0,0-1.59.42,5.1,5.1,0,0,1-2,2.55c-.75.59-1.56,1.09-2.33,1.66-.54-.23-1.33.33-1.08,1,.83,2.13,2.64,4,3.44,6.13a24.82,24.82,0,0,1-5.4,3.11c-1-2.17-2.25-4.52-4.2-5.85a.43.43,0,0,0-.57.12c-.38-.5-1.27-.27-1.84,0a22.2,22.2,0,0,1-4.11,1,.41.41,0,0,0-.14.06.87.87,0,0,0-.78.86c-.09,2.37.21,4.73.16,7.11q-3.18-.18-6.35-.42.05-.86.1-1.72a11.06,11.06,0,0,0,2.61.11c.21,0,.21-.35,0-.33a10.89,10.89,0,0,1-2.6,0c0-.78.07-1.55.07-2.33,0-.18,0-.36,0-.53.85-.12,1.7-.24,2.55-.39.13,0,.1-.25,0-.24-.84.1-1.68.23-2.51.36a2.74,2.74,0,0,0-.36-1.65.89.89,0,0,0-.81-1.2,9.65,9.65,0,0,1-4.43-1.5,44.43,44.43,0,0,1,4.74.21c.14,0,.17-.22,0-.24a28,28,0,0,0-5.22-.25c-.44-.28-.82-.6-1.39-.46-.86.21-1.68,1.5-2.2,2.1-.71.83-1.4,1.69-2.06,2.56-.78-.94-2.13-1.45-3-2.32a12,12,0,0,1-1-1.17c1.58.05,3.17.1,4.74,0a.13.13,0,0,0,0-.26c-1.66-.13-3.34-.11-5-.09-.44-.59-.84-1.21-1.23-1.84a22.66,22.66,0,0,0,2-1.09c2-.16,4.09-.33,6.14-.53.15,0,.15-.24,0-.23-1.9.13-3.79.3-5.69.48a32.27,32.27,0,0,0,3.73-2.78.75.75,0,0,0,.26-.59,17.38,17.38,0,0,0,3.41-.22c.14,0,.11-.27,0-.26a34.09,34.09,0,0,1-3.42.2,1.31,1.31,0,0,0-.22-.45,9.7,9.7,0,0,1-1.64-3.14,15.21,15.21,0,0,0,3.84-.17c.16,0,.09-.27-.07-.24a18.64,18.64,0,0,1-3.84.18c0-.1-.07-.2-.09-.31-.23-1-.2-2-.52-3a7.25,7.25,0,0,0,2.2-.23.16.16,0,0,0-.08-.31,9.8,9.8,0,0,1-2.3.22.6.6,0,0,0-.38-.16.57.57,0,0,0-.25-.2,17.86,17.86,0,0,0-4.46-1c-1.44-.17-2-.83-2.15-1.77,2,.05,4,0,6,0a.13.13,0,0,0,0-.27c-2,0-4-.07-6,0a12.27,12.27,0,0,1,0-1.62,11.46,11.46,0,0,1,.19-2.06,35.65,35.65,0,0,0,5.88-.21c.17,0,.18-.29,0-.27-1.93.13-3.87.18-5.81.14a4,4,0,0,1,.77-1.67l.78.07c1.65-.29,3.8.43,5.48.43a.89.89,0,0,0,.83-1l0,0,.24-.66h0c1.06-.05,2.11-.1,3.17-.19.21,0,.22-.34,0-.33-1,.06-2,.15-3.06.24a8.23,8.23,0,0,1,.93-1.8,7,7,0,0,1,.56-.68,19.62,19.62,0,0,1,3.85.2c.15,0,.22-.2.07-.24a13.59,13.59,0,0,0-3.57-.31c.38-.37.79-.72,1.21-1.08a.75.75,0,0,0,.28-.56.52.52,0,0,0,.19-.8,15.21,15.21,0,0,0-2.16-2c-.63-.5-1.58-1-2.36-1.58a27.67,27.67,0,0,0,5.11.88c.16,0,.15-.23,0-.24a37.43,37.43,0,0,1-5.52-1,3.53,3.53,0,0,1-.57-.58,2.38,2.38,0,0,1,.14-2.65c1.49.15,3,.3,4.47.43.18,0,.18-.26,0-.28-1.44-.15-2.88-.28-4.32-.41a23.38,23.38,0,0,1,3-3.53,27.88,27.88,0,0,1,5.52,5.5.9.9,0,0,0,1.43-.14h0a.32.32,0,0,0,.34-.25,19.65,19.65,0,0,1,4.08.16c.16,0,.23-.21.07-.24a16.11,16.11,0,0,0-4-.19l.07,0c.18-.1.36-.26.54-.36A9.6,9.6,0,0,1,297,84a22.15,22.15,0,0,0,2.79-.59,24.21,24.21,0,0,1,3.11.29c.2,0,.29-.27.09-.31a15.6,15.6,0,0,0-2.73-.33.8.8,0,0,0,.09-.83,10.5,10.5,0,0,0,.33-1.5c1,0,2.08,0,3.12,0a.14.14,0,0,0,0-.29c-1,0-2,0-3.07,0a22.24,22.24,0,0,0,.15-2.84,8.45,8.45,0,0,0,3-.48.11.11,0,0,0-.06-.22,13.7,13.7,0,0,1-2.9.42c0-.84,0-1.67,0-2.48.92,0,1.83,0,2.75,0,.65,0,2.75-.17,3.2.25s.32,2.55.37,3.21a22.14,22.14,0,0,0,.38,3.36.74.74,0,0,0,.31.46.64.64,0,0,0,.92.33l0,0c0,.21.9.15,1.15.17a11.42,11.42,0,0,1,1.59.25c1,.24,1.85.92,2.84,1.12a.9.9,0,0,0,1-.59l.07-.07a21.07,21.07,0,0,0,2.88-6c1.71.94,3.41,1.89,5.14,2.79a56,56,0,0,1-3.31,6.17.81.81,0,0,0-.11.63.74.74,0,0,0,0,.5,8.54,8.54,0,0,0,1.12,1.4,8.35,8.35,0,0,1,1,1.72c.2.46.5,1.45,1,1.74a.56.56,0,0,0,.45.28,35.51,35.51,0,0,0,4.29,0,27.67,27.67,0,0,1,3.29-.45c.22.89.27,1.86.41,2.74l.29,1.87a9,9,0,0,1,.32,1.63c-.25.57-2.7,1-3.28,1.12a5.9,5.9,0,0,0-2.29.76l-.08,0a.88.88,0,0,0-.81.62c-.27.85.11,1.6.15,2.45.05,1-.54,2-.42,2.92a1,1,0,0,0,.33.61.51.51,0,0,0,.21.46,15,15,0,0,0,3.84,1.65c.53.16,2.24.29,2.6.66C333,110.16,332.57,111,332.38,111.7Z"/><path class="cls-1" d="M115.64,125.91a.48.48,0,0,0-.88.24c.09,2.72.66,5.08.07,7.82a16.85,16.85,0,0,1-3.79,7.53,15.77,15.77,0,0,1-1.15,1.14,18.16,18.16,0,0,1-4,2.61,14.7,14.7,0,0,1-1.63.64c-.06-.09-.11-.18-.18-.26s-.18-.08-.2,0,0,.24,0,.37a49.68,49.68,0,0,1-7.54,1.29c-.08,0-.09.09-.07.15-.31,0-.63,0-.94,0-5.92-.45-12.11-3.39-14.14-9.35-2.24-6.57.87-12.85,3.55-18.74a.09.09,0,0,0-.15-.08c-4,5.66-6.81,13.4-4.11,20.2a13,13,0,0,0,3.27,4.73c-21.44,12.14-38.44,32.12-48,54.74-5.17,12.22-8.88,25.91-8.22,39.27.7,14.21,8,25.74,17,36.31,9.28,10.93,20.12,22.87,35,25.21,1,.16,1.46-1.42.42-1.58-13.12-2-22.94-11.69-31.37-21.22-9.1-10.29-17.79-21.46-19.36-35.56-1.47-13.16,1.92-26.88,6.7-39.08a115.42,115.42,0,0,1,18.22-31A119.67,119.67,0,0,1,84.64,145a19.71,19.71,0,0,0,9.87,3.85,22.31,22.31,0,0,0,9.5-1c.13.58.3,1.15.45,1.73.44,1.73.88,3.47,1.33,5.2a.55.55,0,0,0,1.07-.28q-.65-2.42-1.3-4.83c-.19-.72-.35-1.46-.57-2.17a18.41,18.41,0,0,0,7.19-4.91C115.66,138.66,118.73,130.91,115.64,125.91Z"/><path class="cls-1" d="M129.84,211.54q-2-6-3.66-12-.76-2.79-1.43-5.61a.55.55,0,0,0,.43,0l.43,1.46c.14.45.87.4.85-.11-.08-1.78-.4-4.11-1.58-5.59l-.22-.76a.46.46,0,0,0-.82-.14s0,0,0-.08c0-.64-1.05-.65-1,0,0,.27.06.52.1.78,0,.09,0,.18,0,.27-.35,1.18.1,2.23.39,3.53.46,2,1,4.08,1.48,6.11,1.1,4.22,2.37,8.38,3.76,12.51C128.86,212.65,130.1,212.33,129.84,211.54Z"/><path class="cls-1" d="M181.73,277.18c-3.6,11.75-12.08,21.19-22.12,28a101.48,101.48,0,0,1-17.15,9.09c-6.33,2.69-12.95,4.66-19.26,7.37-.64.27-.18,1.28.46,1.11a150.4,150.4,0,0,0,19.58-7.14A98.47,98.47,0,0,0,162,305.4c9.68-6.91,17.79-16.29,21.26-27.82C183.52,276.62,182,276.23,181.73,277.18Z"/><path class="cls-1" d="M73.37,329.14a30.59,30.59,0,0,0-38.88,23.44,31,31,0,0,0-.57,8.08,19.14,19.14,0,0,0,.86,5.52c.05.34.1.68.16,1a.59.59,0,0,0,.75.49s.06.09.1.12a.13.13,0,0,0,.21-.06c0-.07,0-.15,0-.23a.67.67,0,0,0,.25-.68,31,31,0,0,1,7.67-27.13,29.45,29.45,0,0,1,2.33-2.19c7-4.25,14.63-7,23-7.22a.59.59,0,0,0,.59-.41,31.65,31.65,0,0,1,3.17.66A.73.73,0,0,0,73.37,329.14ZM42.49,339.35c-.29.32-.56.65-.83,1,.47-.59,1-1.17,1.47-1.72a28.17,28.17,0,0,1,8.63-6.25A31.28,31.28,0,0,0,42.49,339.35Z"/><path class="cls-1" d="M193.28,334.1c-5.46-4.18-12.25-5.35-19-5.42-8.32-.08-16.7.65-25,1.2-9.4.63-19,.93-28.34,2.52-.25,0-.19.43.06.44,9.89.16,19.9-1.08,29.77-1.69,9.32-.57,19-1.76,28.34-.79a25.77,25.77,0,0,1,20.74,13.92c4.49,8.36,5.11,18.08,5.31,27.38a.77.77,0,0,0,1.54,0C206.42,358.25,204.76,342.89,193.28,334.1Z"/><path class="cls-1" d="M71.76,312.33c-21-10.37-42.12-24.14-49.87-47.48a0,0,0,0,0-.09,0c3.45,14.39,12.85,25.28,24.27,33.93,3.28,3.38,7.6,6,11.6,8.4a94.82,94.82,0,0,0,13.26,6.51h0l.19.08C72,314.15,72.57,312.73,71.76,312.33Z"/></svg>