<svg id="objects" xmlns="http://www.w3.org/2000/svg" viewBox="0 0 241.77 294.45"><defs><style>.cls-1{fill:#1663ca;}</style></defs><title>Монтажная область 1</title><path class="cls-1" d="M8.88,114.84a5.17,5.17,0,0,1-4.32-.91,4.58,4.58,0,0,1-1.28-4.82s0-.05,0,0A4.53,4.53,0,0,0,4,114a4.25,4.25,0,0,0,4.91.94C9,114.92,9,114.83,8.88,114.84Z"/><path class="cls-1" d="M8.18,113.83A4.85,4.85,0,0,1,6,113.21a3.11,3.11,0,0,1-1.28-1.83c-.07-.27-.47-.11-.4.15.37,1.49,2.22,3.2,3.87,2.52A.12.12,0,0,0,8.18,113.83Z"/><path class="cls-1" d="M24.07,115.8a8.08,8.08,0,0,0-2.15,0c-.82.07-1.64.13-2.44.28-.11,0-.13.21,0,.21.77,0,1.55,0,2.32,0a8.61,8.61,0,0,0,2.3-.25A.13.13,0,0,0,24.07,115.8Z"/><path class="cls-1" d="M23.14,156.21a.19.19,0,0,0-.11.15.14.14,0,0,0-.15-.18,1.14,1.14,0,0,0-1.16,1.15,1.22,1.22,0,0,0,2.44-.06C24.17,156.78,23.76,156,23.14,156.21Zm-.09,1.5a.6.6,0,0,1-.69-.37.79.79,0,0,1,.55-.88.13.13,0,0,0,.12-.1.13.13,0,0,0,0,.07,2.84,2.84,0,0,1,.37.71A.45.45,0,0,1,23.05,157.72Z"/><path class="cls-1" d="M28.71,153.61a.26.26,0,0,0-.23.28l0,.1v0s0,.11,0,.11a.2.2,0,0,1,0,.09l0,0,0,0,0-.09v0h0c.16-.2-.13-.41-.31-.24l-.06.08a.56.56,0,0,0-.12.19.62.62,0,0,0,0,.39.71.71,0,0,0,.75.5C29.34,154.87,29.51,153.57,28.71,153.61Z"/><path class="cls-1" d="M31.13,161.12a.65.65,0,0,1,0-.47.63.63,0,0,1,.13.09.15.15,0,0,0,.25-.18c0-.05,0-.1,0-.16a1.66,1.66,0,0,0-.13-.27A.29.29,0,0,0,31,160a1.12,1.12,0,0,0-.53,1.35c.12.44.71,1,1.15.6a.21.21,0,0,0,0-.25C31.47,161.46,31.23,161.37,31.13,161.12Z"/><path class="cls-1" d="M38.69,154.66a1.58,1.58,0,0,0-2.12,2.17,1.59,1.59,0,0,0,2.41.24A1.61,1.61,0,0,0,38.69,154.66Zm-.34,1.79a.71.71,0,1,1-1-1,.86.86,0,0,1,.81-.09A.72.72,0,0,1,38.35,156.45Z"/><path class="cls-1" d="M29.28,178.12a.31.31,0,0,0-.49.2s0,0,0,.07l-.31-.28a.41.41,0,0,0-.57.07.42.42,0,0,0,.07.57l.75.68a.41.41,0,0,0,.57-.07A.88.88,0,0,0,29.28,178.12Z"/><path class="cls-1" d="M38.06,169.2a.36.36,0,0,0-.49.28,1.27,1.27,0,0,0,0,.79.17.17,0,0,0,.26.08.83.83,0,0,0,.2-.21.62.62,0,0,1,0,.26,4.08,4.08,0,0,1-.15.4.35.35,0,0,0,.59.35A1.28,1.28,0,0,0,38.06,169.2Z"/><path class="cls-1" d="M42.08,161a1.12,1.12,0,0,0-.51-.55.85.85,0,0,0-1.27.27.26.26,0,0,0,.27.36,1.17,1.17,0,0,1,.64,0,.69.69,0,0,1,.23.18s.05.09.08.13l0,0a.26.26,0,0,0,0,.05c0,.25.42.33.5.08a1.25,1.25,0,0,0,0-.17s0-.21,0-.07A.59.59,0,0,0,42.08,161Z"/><path class="cls-1" d="M41.57,150.59a.32.32,0,0,0-.32,0h0a.31.31,0,0,0-.19.32v0a.35.35,0,1,0,.69,0A.49.49,0,0,0,41.57,150.59Z"/><path class="cls-1" d="M51.15,286.15c-4.75,1.19-9.37-1.48-12-5.35s-3.56-8.3-4.58-12.62c-2.16-9.14-3.73-18.4-5-27.71-2.54-18.79-3.88-37.71-6.4-56.5q-.73-5.42-1.58-10.83a1.12,1.12,0,0,0,1.22-.32,1.09,1.09,0,0,0-.93-1.68.39.39,0,0,0-.34.42,1.36,1.36,0,0,0,.18.76.23.23,0,0,0,.37,0,.86.86,0,0,0,.11-.2.23.23,0,0,1,0,.26c-.17.21-.52,0-.69-.11l0,0q-.34-2.1-.71-4.2c-.89-5-1.67-10.16-3.32-14.95a0,0,0,0,0-.07,0c.76,5,2.12,10,3,15q.39,2.12.74,4.24a.25.25,0,0,0,0,.16.72.72,0,0,0,.13.36q.86,5.16,1.55,10.34c1.34,10.13,2.36,20.3,3.34,30.47,1.89,19.59,3.77,39.53,9,58.58,1.95,7.14,7.21,16.86,16.23,14.21C51.48,286.4,51.36,286.1,51.15,286.15Z"/><path class="cls-1" d="M30.89,194.55a1.69,1.69,0,0,0-1.77-.17c.08-.15-.09-.36-.25-.23a1.79,1.79,0,0,0-.58,2.45,1.72,1.72,0,0,0,2.56.39A1.66,1.66,0,0,0,30.89,194.55Zm-.59,1.79a1,1,0,0,1-1.41-.17,1.28,1.28,0,0,1-.13-1.24V195a.23.23,0,0,0,.31.25,1.53,1.53,0,0,1,1.09-.15A.76.76,0,0,1,30.3,196.33Z"/><path class="cls-1" d="M42.21,190.6a.42.42,0,0,0-.8.11.22.22,0,0,0-.21,0,1.14,1.14,0,0,0-.46,1.36.37.37,0,0,0,.37.23c.33,0,.67,0,1,0a.43.43,0,0,0,.38-.47A8.53,8.53,0,0,0,42.21,190.6Zm-.74.53c0,.13,0,.26.08.38l-.25,0A.43.43,0,0,1,41.47,191.12Z"/><path class="cls-1" d="M44.19,178.92a1.23,1.23,0,0,0-1.36-.69,1.24,1.24,0,0,0-.93,1.35c0,.16.28.18.29,0,.06-.81,1.14-1.28,1.58-.47a.8.8,0,0,1-1.13,1c-.25-.15-.53.2-.28.36A1.26,1.26,0,0,0,44.19,178.92Z"/><path class="cls-1" d="M42.91,206.73a.94.94,0,0,0-1.1,0c-.28.2-.53.7-.18,1a.22.22,0,0,0,.12,0,.36.36,0,0,0,.17.55C42.83,208.66,43.72,207.38,42.91,206.73Zm-.47.62a.68.68,0,0,1-.05.13.3.3,0,0,1-.1.09s0,0,0,0a.39.39,0,0,0-.23,0,.27.27,0,0,0,0-.09,0,0,0,0,0,0,0h0c.23-.18,0,0,.09-.08a.33.33,0,0,1,.27-.06s0,0,0,0S42.42,207.4,42.44,207.35Z"/><path class="cls-1" d="M31.19,214.27a.31.31,0,0,0-.28-.12.68.68,0,0,0-.56.5.56.56,0,0,0,0,.4l-.05,0c-.12-.12-.33.08-.22.21a.72.72,0,0,0,1,.13A.79.79,0,0,0,31.19,214.27Z"/><path class="cls-1" d="M40,222.27a.45.45,0,0,0-.5.74c.21.21.48.6.8.57A.72.72,0,0,0,41,223,.66.66,0,0,0,40,222.27Z"/><path class="cls-1" d="M45.6,201.24a.32.32,0,0,0-.15.47l-.1.05a.24.24,0,0,0,.11.42,2.38,2.38,0,0,0,.68.05.39.39,0,0,0,.35-.43C46.42,201.4,46,201,45.6,201.24Z"/><path class="cls-1" d="M47.43,227.08a1.11,1.11,0,0,0-.81-.29c-.27,0-.6.19-.64.48a.22.22,0,0,0,.13.23c.23.1.51,0,.72.17a.38.38,0,0,1,0,.56c-.36.42.32,1,.67.53A1.24,1.24,0,0,0,47.43,227.08Z"/><path class="cls-1" d="M33.79,234.5a.64.64,0,0,0-1,.09h0a.19.19,0,0,0-.2.1.77.77,0,0,0,.23,1.05.81.81,0,0,0,1.16-.09A.85.85,0,0,0,33.79,234.5Zm-.48.71h-.08l-.07,0a.35.35,0,0,1-.11-.11l0-.07v0h0a.25.25,0,0,0,0-.11.42.42,0,0,1,.28.15.38.38,0,0,1,.09.18,0,0,0,0,1,0,0H33.3Z"/><path class="cls-1" d="M50.08,288.44C44,288,39,285.28,36.26,279.66h0c1.94,5.36,8,9.65,13.83,8.86C50.12,288.52,50.13,288.44,50.08,288.44Z"/><path class="cls-1" d="M47.72,289.53a25.24,25.24,0,0,1-4.11-.66,12,12,0,0,1-3.71-1.93,0,0,0,0,0,0,0c2,1.77,5,3.35,7.83,2.78A.11.11,0,0,0,47.72,289.53Z"/><path class="cls-1" d="M57.37,252.42c-.84,7.49,2.17,15-.28,22.42a13,13,0,0,1-6.19,7.73c-3.18,1.56-7.46,1.26-10-1.38,0,0,0,0,0,0,4.62,5.07,12,2.57,15.21-2.73a20.51,20.51,0,0,0,2.56-11c0-5-.71-10-1.06-15A.11.11,0,0,0,57.37,252.42Z"/><path class="cls-1" d="M58.19,279.44a25.23,25.23,0,0,1-4.11,5.35s0,.06,0,0a13.68,13.68,0,0,0,4.18-5.33C58.31,279.44,58.23,279.39,58.19,279.44Z"/><path class="cls-1" d="M50.26,199.54c-1.91-13.78-3.74-27.58-5.77-41.34a.07.07,0,0,0-.14,0c1.76,13.8,3.72,27.58,5.6,41.36s3.39,27.66,5.78,41.34a.06.06,0,0,0,.11,0C54.46,227.08,52.17,213.29,50.26,199.54Z"/><path class="cls-1" d="M45.4,277.91c-5.66-.86-7.58-6.61-9.22-11.37A72.73,72.73,0,0,1,32.83,252a0,0,0,0,0,0,0,62.26,62.26,0,0,0,4,17.16c1.47,3.76,3.79,9,8.59,8.9C45.5,278.08,45.49,277.93,45.4,277.91Z"/><path class="cls-1" d="M27.69,237.35l.6,5.36h0l-.59-5.37A0,0,0,0,0,27.69,237.35Z"/><path class="cls-1" d="M56.11,242.31c0-.13-.23-.07-.23.05a21.61,21.61,0,0,0,.87,5.78c0,.11.22.1.23,0A21.81,21.81,0,0,0,56.11,242.31Z"/><path class="cls-1" d="M44.16,150.68c0-.17-.29-.09-.28.07a20.45,20.45,0,0,0,.8,5.17c0,.14.24.07.24-.06A20.52,20.52,0,0,0,44.16,150.68Z"/><path class="cls-1" d="M15.31,120.28a.08.08,0,0,0-.16,0c.18,4.31.83,8.63,1.28,12.91s.57,8.71,1.47,12.89a.06.06,0,0,0,.13,0c0-4.27-.82-8.66-1.27-12.91S16,124.53,15.31,120.28Z"/><path class="cls-1" d="M18.91,138.68a0,0,0,0,0-.06,0,32.45,32.45,0,0,0,.82,5.77c0,.06.11,0,.11,0A32.39,32.39,0,0,0,18.91,138.68Z"/><path class="cls-1" d="M40.13,133.2a0,0,0,0,0-.05,0c.46,4,.93,8,1.74,11.92a0,0,0,0,0,.07,0C41.55,141.14,40.83,137.13,40.13,133.2Z"/><path class="cls-1" d="M32.62,267.09a.06.06,0,0,0-.11,0,30.65,30.65,0,0,0,1.58,6.09,0,0,0,0,0,.09,0A30.65,30.65,0,0,0,32.62,267.09Z"/><path class="cls-1" d="M49.87,103.8a5.38,5.38,0,0,0-3.42-1.43c-3.34-1.43-8.16-.92-11.23-.68-8.33.64-16.68,1.18-25,2l-.49.05-.57,0c-2.08.2-4.52.61-6.07,2.11a6.35,6.35,0,0,0-3,6.58c.7,5.2,6.89,8.69,11.72,6.89,2.43,25.07,5.32,50.1,8.08,75.14l.47,4.31c1.43,14.27,2.77,28.6,4.92,42.8a236.34,236.34,0,0,0,4.86,26.13,106.42,106.42,0,0,0,3.92,13.12,40.55,40.55,0,0,0,2.67,6.33c1.82,3.39,4.62,6.5,8.61,7.11a10.43,10.43,0,0,0,8-2c3.78-2.32,6.14-7.16,7.31-11.9a30.63,30.63,0,0,0,1-4.92,67.17,67.17,0,0,0-.45-15.64q-.25-2.1-.52-4.2-.61-8.43-1.38-16.86-1.75-18.94-4.23-37.8-3.81-29.14-9.32-58Q44,129.35,42.19,115.74a14.87,14.87,0,0,0,2.48-.82c3.07-.73,5.76-2.42,6.56-5.61A5.86,5.86,0,0,0,49.87,103.8ZM41,115.95q.59,4.44,1.18,8.87-.84-4.07-1.71-8.13a.89.89,0,0,0-.63-.68A8.56,8.56,0,0,0,41,115.95Zm-27.32,2.42a.5.5,0,0,0,.11-.66A16,16,0,0,0,17,117a.44.44,0,0,0-.09-.84c-3.75-.3-7.75,1.35-11.47.31a5,5,0,0,1-3.24-2.84,5.42,5.42,0,0,1,.74-5.39c1.52-1.84,4.08-2.4,6.45-2.65a9.81,9.81,0,0,0-5.15,2.87s0,0,0,0a22.72,22.72,0,0,1,3.49-2,23.1,23.1,0,0,1,3.89-1c.06,0,.07-.11,0-.12h-.07c3.46-.25,6.92-.45,10.38-.71l8.7-.66,4.56-.18,8.28-.32h.23c3,.65,4.95,3.12,4.14,5.7-1.3,1.56-4.41,2.3-6.15,2.58l-8.57,1.36a0,0,0,0,0,0,0c2.61-.31,5.22-.59,7.83-.91,1.9-.23,4-.26,5.71-1.19l.16-.1-.08.1a8.91,8.91,0,0,1-5.15,2.51c-.69.13-1.38.18-2,.3-.86,0-1.72,0-2.58,0-.66,0-.62,1,0,1.11l.62.1a.63.63,0,0,0,.37.52,4.77,4.77,0,0,0,1.4.32.71.71,0,0,0-.6.9q1,4.67,2,9.36c.36,2,.71,3.95,1,5.93.67,4.6,1.1,9.21,1.55,13.84a0,0,0,0,0,.09,0c-.22-3.8-.53-7.68-1-11.54q1.23,6.22,2.37,12.45l-.38.06a41.08,41.08,0,0,0-6.27.37c-2.58.22-5.16.49-7.74.8s-5,.53-7.52.89c-2,0-4-.07-6,.12q-.89-7.82-1.83-15.63c-.52-5-1.08-9.93-1.71-14.88Zm41.85,108c.56,4.27,1.16,8.55,1.75,12.82q.94,10.65,1.65,21.31c.36,5.5,1,11.13.27,16.63-.61,4.93-2.45,10.56-7,13.25-5.19,3.09-10.79-.56-13.61-5s-4.33-10.39-5.76-15.61c-1.74-6.33-3.12-12.76-4.26-19.24,0-1.27-.09-2.54-.24-3.8,0,0-.07,0-.07,0,0,.7,0,1.41,0,2.11-2.48-14.66-3.78-29.57-5.34-44.31q1.68,11.62,3.63,23.17s0,0,0,0Q25,215.9,23.06,204.23a.06.06,0,0,0-.12,0q-.26-2.5-.54-5-.45-4.08-.9-8.16c.26,1.64.55,3.27.89,4.88a.08.08,0,0,0,.15,0c-.38-4.39-1.19-8.8-2-13.16Q18.83,166.9,17,151c1.9-.11,3.81-.35,5.72-.63,2.63-.09,5.28-.36,7.76-.54,4.84-.35,9.65-.94,14.44-1.71Q45.5,151.1,46,154q2.33,17.73,4.66,35.46Q53.1,207.93,55.52,226.35ZM50.07,108.92a5.67,5.67,0,0,0,.06-1.58,6.82,6.82,0,0,0-.38-1.64,4.44,4.44,0,0,1,.44,1.57A4.76,4.76,0,0,1,50.07,108.92Z"/><path class="cls-1" d="M17.14,118.62a.1.1,0,0,0-.21,0,31.49,31.49,0,0,0,.45,3.71.06.06,0,0,0,.13,0A31.5,31.5,0,0,0,17.14,118.62Z"/><path class="cls-1" d="M18.78,118a.13.13,0,0,0-.26,0c.2,2.28.54,4.54.86,6.8a0,0,0,0,0,.05,0C19.24,122.56,19.08,120.29,18.78,118Z"/><path class="cls-1" d="M21,117.77a.08.08,0,0,0-.16,0c.26,3.09.76,6.2,1.27,9.26a0,0,0,0,0,.09,0C21.92,123.95,21.6,120.82,21,117.77Z"/><path class="cls-1" d="M23.18,118.16a0,0,0,0,0-.09,0,92.67,92.67,0,0,0,.8,10.25c.34,3.41.64,6.82,1,10.23a0,0,0,0,0,0,0c-.24-3.42-.52-6.83-.77-10.25A92.26,92.26,0,0,0,23.18,118.16Z"/><path class="cls-1" d="M28.92,223.42c0-.06-.1-.06-.1,0A27.61,27.61,0,0,0,30.19,234a.06.06,0,0,0,.12,0C29.67,230.43,29.5,226.9,28.92,223.42Z"/><path class="cls-1" d="M240.77,56.85a24.48,24.48,0,0,0-7.45-9.51q-1.92-1.61-4-3.05a52.2,52.2,0,0,0,3-8.8c.76-3.17,1.29-6.72,0-9.84-1.35-3.39-4.57-4.82-8-5a43.7,43.7,0,0,0-10.63,1l-1.44.3c-.17-.31-.35-.63-.53-.94a24.27,24.27,0,0,0-7.8-8.48A18.24,18.24,0,0,0,193,9.93c-.43,0-.86.08-1.28.14a.33.33,0,0,0-.38-.13c-.4.13-.79.27-1.18.42a17.22,17.22,0,0,0-12.92,13.06,18.17,18.17,0,0,0-.34,2.06q-.22.59-.42,1.19a29.19,29.19,0,0,0-8,.12A21.76,21.76,0,0,0,158.75,30a15,15,0,0,0-6.46,8.2A17.17,17.17,0,0,0,153,49.29c2.45,6.21,7.67,10.57,13.32,13.9q-.74,2.2-1.3,4.45a42.89,42.89,0,0,0-1.54,10.84c.05,3.34,1.07,6.76,4,8.67s6.64,1.81,9.93,1.31A37.24,37.24,0,0,0,184,86.81q.38.68.78,1.35a27.67,27.67,0,0,0,7.44,8.73c6.27,4.4,14.35,2.29,19.63-2.65,4.86-4.55,6.85-11.07,7.79-17.54h.26c7.58.22,16.33-1.49,20.35-8.7A13,13,0,0,0,240.77,56.85ZM217.35,22.78c3.25-.45,7.29-1.1,10.39.28s3.87,5,3.62,8.16a36.86,36.86,0,0,1-2.52,9.89q-.42,1.11-.89,2.21a76.27,76.27,0,0,0-9.81-5.58,63,63,0,0,0-5-14.2C214.5,23.23,215.92,23,217.35,22.78ZM176,48.21c4.11-5.18,8.34-10.06,13.69-14Q191.31,33,193,31.92c4.11.91,8.18,2,12.18,3.25a95.54,95.54,0,0,1,11,4.27q.24,1.13.45,2.24a99.64,99.64,0,0,1,1.65,17.12A102.8,102.8,0,0,1,203.69,73l-2.56-.38a110.7,110.7,0,0,1-22.74-5.92,89.92,89.92,0,0,1-1.67-9.88C176.4,54,176.15,51.1,176,48.21Zm.19,17.62a73.6,73.6,0,0,1-7.79-3.69l.1-.28a58.17,58.17,0,0,1,5.76-11.38q0,.59.07,1.17A97.41,97.41,0,0,0,176.23,65.83Zm39.31-29.29q-1.46-.64-2.94-1.23a118.68,118.68,0,0,0-16.74-5.16A60.38,60.38,0,0,1,207.53,25q1.73-.55,3.49-1A57.25,57.25,0,0,1,215.54,36.54Zm-28.6-22.77a15,15,0,0,1,2.61-1.08,16.73,16.73,0,0,1,10.66.32,18.06,18.06,0,0,1,8.27,6.79q.9,1.3,1.69,2.68a62,62,0,0,0-16.73,7.12q-2.15-.47-4.31-.89c-3.58-.7-7.18-1.36-10.79-1.82A27.92,27.92,0,0,1,186.94,13.77ZM177,32.42q.29-1.63.71-3.23c1.88.23,3.76.54,5.61.85q3.7.63,7.37,1.38a61,61,0,0,0-11.38,10.1,44.63,44.63,0,0,0-3.31,3.7A69,69,0,0,1,177,32.42Zm-18.3,22.23c-4.73-5.23-7.22-13.8-2.44-19.83a14.63,14.63,0,0,1,5.15-4.09.64.64,0,0,0,0,.1,9.24,9.24,0,0,1,3.93-1.44,8.37,8.37,0,0,1,2.39,0,28,28,0,0,1,8.1-.36,64.79,64.79,0,0,0-1.63,18.6A60.63,60.63,0,0,0,168.76,57q-1,2.12-1.81,4.32A36.15,36.15,0,0,1,158.66,54.66Zm7,27.52c-1.07-3.27-.48-7,.11-10.27a57.58,57.58,0,0,1,2-7.87q1,.56,2,1.08,3.42,1.76,7,3.2a76.5,76.5,0,0,0,2.53,8.39,69.7,69.7,0,0,0,3.82,8.61C177.53,87.22,168,89.25,165.67,82.18Zm16.94-2.49A72.11,72.11,0,0,1,179,69.18a105.75,105.75,0,0,0,15,4.34q3.59.77,7.25,1.37A66.34,66.34,0,0,1,185,84.64C184.14,83,183.34,81.37,182.61,79.69Zm30.61,9.24c-3.38,5.52-10.37,9.85-16.95,7.72-3.48-1.12-6.13-4-8.15-6.88-.82-1.18-1.58-2.4-2.3-3.65a62.73,62.73,0,0,0,13.1-7.38q2.37-1.69,4.69-3.5c4.56.67,9.15,1.14,13.73,1.36A32.46,32.46,0,0,1,213.23,88.94Zm4.95-22.34c-.12,2.55-.26,5.16-.54,7.76-1.52-.09-3-.21-4.53-.34q-3.53-.29-7.05-.72a100.06,100.06,0,0,0,12.26-11.84Q218.29,64,218.18,66.6Zm1.43-21c-.23-1.64-.51-3.29-.83-4.94a73.38,73.38,0,0,1,6.71,3.84l1.47,1A63.15,63.15,0,0,1,220.52,56C220.38,52.51,220.08,49.05,219.6,45.62Zm6,28.6a38.94,38.94,0,0,1-5.68.24q.13-1.13.22-2.24a130.56,130.56,0,0,0,.48-13.52,67.63,67.63,0,0,0,7.76-12.24c5.23,3.67,10.68,8.61,11,15.1C239.73,69.11,232.16,73.41,225.58,74.22Z"/><path class="cls-1" d="M204.12,50.17c-1.14-3.18-3.52-6.48-7.07-7.1a8.19,8.19,0,0,0-6.36,1.74c-5.93,2.27-8.07,9.83-4.74,15.21a11.18,11.18,0,0,0,8.89,5.38,9.74,9.74,0,0,0,8.34-4.65A12.18,12.18,0,0,0,204.12,50.17Zm-6.91.21a16.29,16.29,0,0,1,.69,1.76,13.76,13.76,0,0,0-.86-1.85Zm-2.43-4.56a.87.87,0,0,0,0,.14,3.46,3.46,0,0,0-.47,0l.11-.05a.36.36,0,0,0,.14-.11Zm-4.72,15.76a9.56,9.56,0,0,1-1.65-1.5,9.36,9.36,0,0,1-2.2-8.06,9.09,9.09,0,0,1,1.31-3,11.51,11.51,0,0,0-.28,7.46,9.88,9.88,0,0,0,2.88,4.68h0A1.12,1.12,0,0,0,190.07,61.58Zm.86-2.69a8.55,8.55,0,0,1-1.71-3.4,9.11,9.11,0,0,1,.9-6.87l.1.28a1.11,1.11,0,0,0-.49.79,16.08,16.08,0,0,0,1.56,9A1.94,1.94,0,0,0,190.93,58.89Zm1.08-4q.21.63.38,1.27Q192.17,55.58,192,54.93Zm1.44-2.54q-.47-1.48-1.07-2.92l.23-.09c.37,1.14.73,2.29,1,3.45ZM196,63.18a7.4,7.4,0,0,1-1.62,0A9.57,9.57,0,0,0,199,62,7,7,0,0,1,196,63.18Zm6.05-11.89c0-.14,0-.28,0-.42.09.25.16.51.24.77Z"/><path class="cls-1" d="M135.85,112.89a31.25,31.25,0,0,0-31.26-5.5,59.71,59.71,0,0,0-15,8.37,56.76,56.76,0,0,0-6.18,5.1,17.24,17.24,0,0,0-6.42,9.59c-1.62,5.61-.75,11.56,1,17q.58,1.78,1.27,3.54a65.28,65.28,0,0,0,4.26,12.35c5,10.49,14.37,18.78,26.51,18.43a29.38,29.38,0,0,0,10.58-2.35c2,6.39,4.59,12.61,7.14,18.78q4.21,10.2,8.83,20.22c.95,2.06,2.17,5.23,5,5a2.92,2.92,0,0,0,1.9-.81,4.78,4.78,0,0,0,3.28-3.38A9.25,9.25,0,0,0,146,213c-1-2.47-2.2-4.89-3.36-7.3q-3.59-7.48-7.42-14.83c-2.5-4.81-4.94-9.75-7.79-14.36A1.2,1.2,0,0,0,127,176l-.07-.12a40.51,40.51,0,0,0,9.49-9.34,41.53,41.53,0,0,0,10.87-23.67C148.36,131.73,144.5,120.27,135.85,112.89Zm4.33,105.46c-.71-1.45-1.38-2.92-2.06-4.38q-4-8.64-7.68-17.43c-2.53-6.06-4.79-12.24-7.43-18.25l.69-.38a11.24,11.24,0,0,0,1.05,3.75c.71,1.83,1.5,3.63,2.27,5.43,1.58,3.71,3.21,7.39,4.85,11.07,3.07,6.87,6.16,13.72,9.2,20.6a7,7,0,0,1,.09,1c0,.32.25.46-.13.06A5.66,5.66,0,0,1,140.18,218.35Zm3.51-84.17a35.63,35.63,0,0,1-2.79,19.92.86.86,0,0,0-.33.31,100.83,100.83,0,0,1-9.29,13c-6,5.66-14,9.93-22.28,9.45-12-.69-19.93-11.1-24.74-21l-.53-1.12q-.17-.55-.34-1.11a74.12,74.12,0,0,1-3.23-15.9A17.67,17.67,0,0,1,85,123.82a58.3,58.3,0,0,1,12.81-9.68c8.91-5.25,19.29-7.52,29-3A30.26,30.26,0,0,1,143.69,134.17Z"/><path class="cls-1" d="M136.24,158.35a54.7,54.7,0,0,1-5.16,5.72,26.71,26.71,0,0,1-6.55,4.09,27.28,27.28,0,0,1-14.88,2A30.68,30.68,0,0,1,86.09,152,38.54,38.54,0,0,1,83,133.78s-.07-.06-.08,0c-1.16,11,2.77,22.43,11.22,29.72,8,6.88,19,9.83,29.08,6.15a27.77,27.77,0,0,0,7.79-4.37c2.21-1.77,4.55-4,5.65-6.65A.26.26,0,0,0,136.24,158.35Z"/><path class="cls-1" d="M119.44,172.53c-2.35.05-4.64.41-7,.29a35.79,35.79,0,0,1-6.51-.94,34.77,34.77,0,0,1-12.72-5.78s0,0,0,0a36.9,36.9,0,0,0,12.47,5.94c4.22,1,9.54,1.77,13.81.59C119.55,172.64,119.52,172.53,119.44,172.53Z"/><path class="cls-1" d="M110.74,175.33c-1.36-.34-2.79-.35-4.17-.64a30.1,30.1,0,0,1-4.45-1.21.07.07,0,0,0-.06.12c2.55,1.23,5.78,2.55,8.67,2.07A.18.18,0,0,0,110.74,175.33Z"/><path class="cls-1" d="M126.65,116.26a27.84,27.84,0,0,0-27.11-.54,26.44,26.44,0,0,0-10.91,10.59s0,.08.07,0a30.08,30.08,0,0,1,22.36-13.17,27,27,0,0,1,23.78,11.2,28,28,0,0,1,3.75,6.89,47,47,0,0,1,1.77,7.64c0,.17.32.21.33,0,.21-4.49-1.81-9.22-4.15-13A29.66,29.66,0,0,0,126.65,116.26Z"/><path class="cls-1" d="M122.55,117a0,0,0,0,0,0,.05,35.65,35.65,0,0,1,11.85,10.06,0,0,0,0,0,.06,0A26.65,26.65,0,0,0,122.55,117Z"/><path class="cls-1" d="M119.93,110.89c-.06,0-.07.08,0,.1a32.21,32.21,0,0,1,11.64,6.31,37.91,37.91,0,0,1,8,10s.11,0,.09,0C136.17,119.2,128.16,113.23,119.93,110.89Z"/><path class="cls-1" d="M139.87,143.39c-.55,2.65-.85,5.35-1.62,8-.08.26.28.44.39.18a14.87,14.87,0,0,0,1.5-8.12A.14.14,0,0,0,139.87,143.39Z"/><path class="cls-1" d="M144.68,236.89a18.69,18.69,0,0,0-2.32-1.47c-2.81-3.3-8.37-3.76-12.39-2.65a22.34,22.34,0,0,0-2.94,1,19.24,19.24,0,0,0-5.76,2.72A19.92,19.92,0,0,0,113,251.65a19,19,0,0,0,.59,7.66c1.49,5.13,5.43,9.82,10.71,11.27,5.91,1.63,12.71-.27,16.23-5.45,1.35-2-1.65-4.23-3-2.23a11.43,11.43,0,0,1-10.79,4.61,12.42,12.42,0,0,1-9.9-7.47,15.61,15.61,0,0,1-1.42-7.52,24.6,24.6,0,0,1,.37-2.58,19.74,19.74,0,0,1,5.77-9.82,16.15,16.15,0,0,1,1.39-1.06c5.87-4,14-3.42,19.6.69A1.78,1.78,0,0,0,144.68,236.89Z"/><path class="cls-1" d="M153.7,259.4a4.62,4.62,0,0,0-.3-4.32c-1.94-3.34-7.66-3.54-8.7.62-.24.95,1,1.47,1.71,1,1.25-.93,3.12-1.9,4.26-.22a2.44,2.44,0,0,1,.15,2.42,5.29,5.29,0,0,0-3.16,1.8,1.1,1.1,0,0,0,.75,1.74,5.54,5.54,0,0,0,3.7-1.05,2.54,2.54,0,0,1,1.1,3.58,4.11,4.11,0,0,1-2.69,2c-1.28.31-2.26-.17-3.49-.24-.84,0-1.76,1-1,1.78,3.34,3.3,9.76-.1,10.19-4.36A4.92,4.92,0,0,0,153.7,259.4Z"/><path class="cls-1" d="M190.63,237.65a1.29,1.29,0,0,0-2,.87c-.77,4-1.6,7.93-2.4,11.89-5.68-.11-11.39-.31-17.05.1,0-.69.1-1.38.15-2.07.26-3.65.73-7.36.75-11a4.4,4.4,0,0,0-1.38-3.59,2.58,2.58,0,0,0-2.39-.51.76.76,0,0,0-1.22.34c-1,2.71-.87,6.11-1,9-.11,3.24-.19,6.47-.19,9.71q0,9.46.52,18.9a1.26,1.26,0,0,0,1.91,1,.9.9,0,0,0,1.12-.83q.81-8.79,1.46-17.59a1,1,0,0,0,.95.74,73.31,73.31,0,0,0,8,0c3.06,0,6.12,0,9.19,0h0c-.63,6.66-1.2,13.32-1.51,20-.08,1.8,2.63,2.18,2.81.35q.17-1.5.32-3c.57-5,1.32-10,1.92-15q.53-4.42,1-8.84.24-2.21.46-4.43a36.15,36.15,0,0,1,.5-4.72C192.95,237.68,191.5,237.15,190.63,237.65ZM166.87,243c0-1.57,0-3.15,0-4.72,0-.94,0-1.93,0-2.89,1.11.54.88,2.09.79,3.37q-.17,2.36-.35,4.72-.28,3.81-.56,7.62C166.79,248.35,166.81,245.66,166.87,243Zm2.16,9.77,0-.38.28,0A1,1,0,0,0,169,252.73Z"/><path class="cls-1" d="M199.27,261.32c-1.77-2-5.14-.8-5.94,1.51a5.15,5.15,0,0,0,.29,4.07,6,6,0,0,0,.54.83,5.41,5.41,0,0,0-1.1.78,4.42,4.42,0,0,0-1.44,3.83,4,4,0,0,0,6.32,2.88,3.72,3.72,0,0,0,1.39-3.73,7.54,7.54,0,0,0-2.3-3.73C199.24,266.45,201.26,263.62,199.27,261.32ZM194,272.22c-.31-1.54.8-2,1.85-2.54a5.51,5.51,0,0,1,1,1.76A1.52,1.52,0,1,1,194,272.22Zm3.21-7.19a6.58,6.58,0,0,1-1.42,1.36,4.16,4.16,0,0,1-.87-1.88c-.17-1.11.55-2.4,1.81-2.19S197.79,264.19,197.23,265Z"/><path class="cls-1" d="M104.84,14.76q0,1.21-2.21,2.75a14.62,14.62,0,0,0-1.24.88,43.59,43.59,0,0,0-4.53,1.51,23.2,23.2,0,0,0-2.49.48,6.72,6.72,0,0,0-1.32.68,5.1,5.1,0,0,1-.94.51q-.15,0-.46-.38a1.12,1.12,0,0,1-.31-.57v0a5.64,5.64,0,0,0,.12-.75,7.36,7.36,0,0,1,4-1.72,13.08,13.08,0,0,0,6.6-2.75q1-.83,1-1.27t-.8-1.09a4.08,4.08,0,0,0-1-.63,15.66,15.66,0,0,0-3.35-1,1.9,1.9,0,0,0-.24.2,9.27,9.27,0,0,1-1,0A7.64,7.64,0,0,1,95,11.4l-.4-.31s0-.31.12-.8q.07-.47.13-.76a10.22,10.22,0,0,1,1.42-.85,17.34,17.34,0,0,0,3.8-2.32,14.76,14.76,0,0,0,2.34-2.76,3.66,3.66,0,0,0,.27-.8q-.27-.4-1.21-.4l-1.4.27-1.37.28a.57.57,0,0,1-.43-.21,1.91,1.91,0,0,0-.08.28L96,3.83q-.48.19-1.63.72t-1.18.52q-.4,0-.66-.61a4.14,4.14,0,0,0-.47-.95q.15-.24.39-.64a29.38,29.38,0,0,1,2.91-1.31q1-.33,3.38-1A22.82,22.82,0,0,1,101,0a.69.69,0,0,1,.21.12.75.75,0,0,0,.19.11l.29-.05.25-.05a2.79,2.79,0,0,1,1.26.39q.31.29,1,.81l.17.59a5.87,5.87,0,0,1,.15.64,4.48,4.48,0,0,1-.21,1.19,1.14,1.14,0,0,0-.31.33v0a3,3,0,0,1-.89,1.63A6,6,0,0,1,101.65,7a17.31,17.31,0,0,1-1.37,1.44,14,14,0,0,0-1.41.95q.13.44,1.95.85a11.35,11.35,0,0,1,1.77.79A4,4,0,0,1,104.84,14.76Z"/><path class="cls-1" d="M90.53,16.9h0A10.23,10.23,0,0,0,90,18.38q-1.16,1-1.86,1.71c0,.12,0,.2,0,.24a.14.14,0,0,0,0,.07,8.76,8.76,0,0,0-1.88,1.12q-.94.64-2,1.25Q80.34,25,79.51,25a.82.82,0,0,1-.62-.35,1,1,0,0,1-.31-.71,1.2,1.2,0,0,1,.68-1q1.54-.68,4.53-2.39l1.76-1,.2-.13a19.17,19.17,0,0,0,2.15-1.78,2.56,2.56,0,0,0,.74-1.2q0-.57-1.74-2a4.13,4.13,0,0,0-1.31-.64q-1.53-.48-1.65-.48h-5a11.92,11.92,0,0,1-1.5-.29A8.43,8.43,0,0,1,76,12.55a2.59,2.59,0,0,1-.22-1A11.91,11.91,0,0,1,76.9,7.37a.48.48,0,0,0,.19-.24q0-.17.58-1.93a2.21,2.21,0,0,1,.48-.73,5.44,5.44,0,0,1,2.27-.37,47.59,47.59,0,0,1,5.18.16q1.11.17,1.3.17a1.48,1.48,0,0,0,.31-.11l.27-.11a.93.93,0,0,1,.74.44,1.56,1.56,0,0,1,.32,1q0,1.19-1,1.19l-.46-.07-.42-.08q-3.46-.28-6-.28a1.37,1.37,0,0,0-1.11.37,10.06,10.06,0,0,0-.83,1.86,7,7,0,0,0-.4.73q-.11.45-.38,1.47,1.48.28,1.68.28L80,11l.4-.05a3.13,3.13,0,0,0,.62.2,27.14,27.14,0,0,1,4.59.69,8.73,8.73,0,0,1,4.2,2.55,4.17,4.17,0,0,1,.63,1.43A3.57,3.57,0,0,1,90.53,16.9Z"/><path class="cls-1" d="M102.19,33l-1.24,9.76q0,.92.14,2.52.15,2.14.15,2.58v.09a.76.76,0,0,0,.15.31v1.12l-.31.36a1.29,1.29,0,0,0-.57-.24,6.31,6.31,0,0,1-1.17-3.51q0-.6-.19-3.71l.9-8.09q0-.49.17-1.88t.86-1.39a.78.78,0,0,1,.55.28A14.56,14.56,0,0,1,102.19,33Z"/><path class="cls-1" d="M91.44,50.29q0,.69-.83.91l-1.08.31a.56.56,0,0,0,.3.07,10,10,0,0,0-3.79.8l-1.77.37a18.6,18.6,0,0,1-3.53.37l-.89.09-.76.08a1,1,0,0,1-.64-.28,1.17,1.17,0,0,0-.37-.65.42.42,0,0,0,0-.09,2.25,2.25,0,0,0-.06-.41L78,51.43a1.42,1.42,0,0,1,0-.25q2.45-2.4,3.8-4l2.09-2.56.89-1.35a4.51,4.51,0,0,0,.51-.41,28.22,28.22,0,0,0,2.44-4,11,11,0,0,0,.91-3.39,1.11,1.11,0,0,0-.35-.83,1.18,1.18,0,0,0-.85-.34q-1,0-5.42,1.78-.22.09-1.7,1L79,38s-.05.05-.13.05-.39-.17-.65-.51a1.39,1.39,0,0,1-.4-.79.9.9,0,0,1,.48-.8l.81-.43a15.73,15.73,0,0,1,1.81-1.2L84.12,33a8.78,8.78,0,0,1,3.2-.76,3.44,3.44,0,0,1,.77,0,3.39,3.39,0,0,1,2.15,2.62,1.42,1.42,0,0,0-.14.37.76.76,0,0,1,.17.59,7.92,7.92,0,0,1-.53,2.55,8.07,8.07,0,0,1-1.18,2.32,6.7,6.7,0,0,1-.34.84,26.91,26.91,0,0,1-2.14,3.07q-.21.28-4.23,5.15a2.75,2.75,0,0,1-.07.48,4.16,4.16,0,0,0-.38.36,1,1,0,0,0,.78.33,7.12,7.12,0,0,0,.81-.27,7.1,7.1,0,0,1,1.16-.36,34.05,34.05,0,0,1,6.08-.52l.44.09a3.37,3.37,0,0,0,.57.11C91.38,50.14,91.44,50.23,91.44,50.29Z"/><path class="cls-1" d="M106.79,78.6q0,.69-.83.91l-1.08.31a.56.56,0,0,0,.3.07,10,10,0,0,0-3.79.8l-1.77.37a18.59,18.59,0,0,1-3.53.37l-.89.09-.76.08a1,1,0,0,1-.64-.28,1.17,1.17,0,0,0-.37-.65.42.42,0,0,0,0-.09,2.25,2.25,0,0,0-.06-.41l-.08-.41a1.41,1.41,0,0,1,0-.25q2.45-2.4,3.8-4l2.09-2.56.89-1.35a4.52,4.52,0,0,0,.51-.41,28.22,28.22,0,0,0,2.44-4,11,11,0,0,0,.91-3.39,1.11,1.11,0,0,0-.35-.83,1.18,1.18,0,0,0-.85-.34q-1,0-5.42,1.78-.22.09-1.7,1l-1.36.8s-.05.05-.13.05-.39-.17-.65-.51a1.39,1.39,0,0,1-.4-.79.9.9,0,0,1,.47-.8l.81-.43a15.69,15.69,0,0,1,1.81-1.2l3.24-1.31a8.78,8.78,0,0,1,3.2-.76,3.44,3.44,0,0,1,.77,0,3.39,3.39,0,0,1,2.15,2.62,1.42,1.42,0,0,0-.14.37.76.76,0,0,1,.17.59,7.92,7.92,0,0,1-.53,2.55A8.07,8.07,0,0,1,103.91,69a6.73,6.73,0,0,1-.34.84,26.91,26.91,0,0,1-2.14,3.07q-.21.28-4.23,5.15a2.76,2.76,0,0,1-.07.48,4.15,4.15,0,0,0-.38.36,1,1,0,0,0,.78.33,7.14,7.14,0,0,0,.81-.27,7.11,7.11,0,0,1,1.16-.36,34.06,34.06,0,0,1,6.08-.52l.44.09a3.37,3.37,0,0,0,.57.11C106.73,78.46,106.79,78.55,106.79,78.6Z"/><path class="cls-1" d="M89.57,78.63q0,1.21-2.21,2.75a14.68,14.68,0,0,0-1.24.88,43.62,43.62,0,0,0-4.53,1.51,23.22,23.22,0,0,0-2.49.48,6.73,6.73,0,0,0-1.32.68,5.11,5.11,0,0,1-.94.51q-.15,0-.46-.38a1.12,1.12,0,0,1-.31-.57v0a5.64,5.64,0,0,0,.12-.75,7.36,7.36,0,0,1,4-1.72,13.08,13.08,0,0,0,6.6-2.75q1-.83,1-1.27T87,76.94a4.08,4.08,0,0,0-1-.63,15.66,15.66,0,0,0-3.35-1,1.9,1.9,0,0,0-.24.2,9.27,9.27,0,0,1-1,0,7.64,7.64,0,0,1-1.69-.24l-.4-.31s0-.31.12-.8q.07-.47.13-.76A10.23,10.23,0,0,1,81,72.55a17.34,17.34,0,0,0,3.8-2.32,14.76,14.76,0,0,0,2.34-2.76,3.66,3.66,0,0,0,.27-.8q-.27-.4-1.21-.4l-1.4.27-1.37.28A.57.57,0,0,1,83,66.6a1.91,1.91,0,0,0-.08.28l-2.17.83q-.48.19-1.63.72t-1.18.52q-.4,0-.66-.61a4.14,4.14,0,0,0-.47-.95q.15-.24.39-.64a29.4,29.4,0,0,1,2.91-1.31q1-.33,3.38-1a22.83,22.83,0,0,1,2.22-.56.7.7,0,0,1,.21.12.75.75,0,0,0,.19.11l.29-.05.25-.05a2.79,2.79,0,0,1,1.26.39q.31.29,1,.81l.17.59a5.89,5.89,0,0,1,.16.64A4.48,4.48,0,0,1,89,67.61a1.14,1.14,0,0,0-.31.33v0a3,3,0,0,1-.89,1.63,6,6,0,0,1-1.43,1.31A17.3,17.3,0,0,1,85,72.36a13.93,13.93,0,0,0-1.41.95q.13.44,1.95.85a11.35,11.35,0,0,1,1.77.79A4,4,0,0,1,89.57,78.63Z"/><path class="cls-1" d="M58.29,31.33l14-1"/><path class="cls-1" d="M66.38,60.71a466.6,466.6,0,0,1,76.51-8.41"/><path class="cls-1" d="M71.66,29.85c-1.77-1-3.88-.48-5.86-.38l-7.69.4c-1.31.07-1.32,2.1,0,2l7.69-.36c2-.09,4.2.24,5.87-.94A.45.45,0,0,0,71.66,29.85Z"/><path class="cls-1" d="M205.55,186.29a.57.57,0,0,0,.22-.87c-1.41-1.59-2.92-3.11-4.46-4.57a.39.39,0,0,0-.59.1,1.19,1.19,0,0,0-.28,0c-2,0-3.92-.38-5.87-.37a.55.55,0,0,0-.31.11.46.46,0,0,0-.5.21,13,13,0,0,0-1.26,7.28.72.72,0,0,0,.3.5.42.42,0,0,0-.18.5,9.38,9.38,0,0,0,1.61,2.31,8.25,8.25,0,0,0,1.37,1.41.38.38,0,0,0,.27.49,21.19,21.19,0,0,0,7.63,1.15.59.59,0,0,0,.21-.06.38.38,0,0,0,.52-.26,27.21,27.21,0,0,0,.95-4.33A20.35,20.35,0,0,0,205.55,186.29Zm-1-.5c0,.13-.07.27-.11.41-.93-1-1.89-2-2.83-3h0c0-.25,0-.5.06-.76C202.55,183.62,203.51,184.72,204.51,185.79Zm-.92,5.72a13.67,13.67,0,0,0-2.43-2.67c.07-.76.11-1.52.16-2.28a19.33,19.33,0,0,0,2.52,3.22C203.75,190.35,203.66,190.93,203.58,191.51Zm.36-2.42c-.38-.48-.81-.93-1.2-1.4s-.92-1.15-1.38-1.74c.05-.79.11-1.58.17-2.37.92,1,1.83,2,2.76,3C204.12,187.41,204.06,188.27,203.94,189.09Zm-9.39-7.1a23.47,23.47,0,0,0,5.84.67h0a38.53,38.53,0,0,0-.5,6c-1.09-.27-2.26-.32-3.36-.49-.83-.12-1.66-.23-2.49-.28.18-1.13.19-2.32.32-3.46C194.48,183.59,194.54,182.79,194.56,182Zm2.16,10.53a5.8,5.8,0,0,0-1.41-2,16.46,16.46,0,0,0-1.47-1.45,15.3,15.3,0,0,0,2.53.8,19.1,19.1,0,0,0,1.55,1.6c.42.43.82.92,1.27,1.34C198.37,192.73,197.55,192.61,196.72,192.52Zm3.24.42a12.73,12.73,0,0,0-1.48-1.58c-.39-.4-.79-.86-1.21-1.28a13.11,13.11,0,0,0,2.1.18c.8,1,1.6,1.94,2.45,2.86C201.2,193.06,200.58,193,200,192.94Zm2.73.28c-.84-1-1.78-2-2.71-3h.2a.83.83,0,0,0,.23-.06.54.54,0,0,0,.67-.46c0-.15,0-.3,0-.46a30.12,30.12,0,0,1,2.37,3c0,.36-.1.73-.13,1.09Z"/><path class="cls-1" d="M213.41,139.86l-.15-.23c.13-1.12.25-2.25.34-3.37a.63.63,0,0,0,.08-1c0-.06,0-.11,0-.17a.52.52,0,0,0-.88-.43,25.46,25.46,0,0,1-2.28-1.66,13,13,0,0,0-2.24-1.86l-.09-.06c-1.71-.87-3.89-.8-5.79-1a41.53,41.53,0,0,0-5.9-.41.53.53,0,0,0-.54.43.56.56,0,0,0-.42.53c-.18,6.72-.25,13.44-.48,20.15-.21,6.25-.79,12.51-.52,18.76a.31.31,0,0,0-.36.41,23.25,23.25,0,0,0,1.31,2.57,8.14,8.14,0,0,0,1.18,1.75.4.4,0,0,0,.3.28l.17,0,0,0a.44.44,0,0,0,.13,0c2.61.62,5.74,1.25,8.37.69a.49.49,0,0,0,.39-.36c.1.25.5.35.6,0l.07-.25a.2.2,0,0,0,.14-.25l0-.08a124,124,0,0,0,3.87-18.58c.76-5.13,1.79-10.31,2.44-15.49A.31.31,0,0,0,213.41,139.86Zm-4.25,4.23a19,19,0,0,0,1.89,2.26c-.14,1.1-.29,2.2-.45,3.3a37.13,37.13,0,0,0-3.06-3.57q.26-1.75.51-3.5C208.41,143.09,208.78,143.6,209.16,144.09Zm-1-2.09q.24-1.75.45-3.5c.47.7.95,1.39,1.44,2.08a17.7,17.7,0,0,0,1.51,2l-.39,3.05c-.55-.67-1.18-1.29-1.72-2S208.55,142.56,208.13,142Zm3.49,0c-.43-.6-1-1.16-1.4-1.73s-1.06-1.45-1.58-2.19c.12-1,.22-2,.3-3.06,1,1.37,2,2.83,3.06,4.14Q211.8,140.55,211.61,142Zm-1.86-8.06a26.41,26.41,0,0,0,2.74,2c-.12.71-.23,1.42-.33,2.13-1-1.29-2.14-2.52-3.17-3.75,0-.33.06-.67.08-1Zm-13.26,15.55c.22-6.14.43-12.3.46-18.44a51.31,51.31,0,0,0,6.06.89,15.64,15.64,0,0,0,4.94.24v0c-.87,4.07-1.39,8.28-1.87,12.47a.12.12,0,0,0,0,.18h0c-.27,2.4-.54,4.8-.85,7.17-.76,5.73-1.93,11.65-2.05,17.44-.13,0-.28.1-.18.23l.16.22c0,.14,0,.27,0,.41a16.68,16.68,0,0,0-3.71-.51c-1.39-.18-2.75-.42-4.15-.53C196.27,162.76,196.26,156.06,196.49,149.47Zm1.22,24.27a7.68,7.68,0,0,0-1.2-1.8c-.46-.65-1-1.28-1.44-1.9a13.85,13.85,0,0,0,2,.65,12.56,12.56,0,0,0,1.19,1.67,7.27,7.27,0,0,0,1.44,1.45C199,173.78,198.36,173.77,197.71,173.74Zm2.56.07a.19.19,0,0,0,0-.14,18.76,18.76,0,0,0-1.67-1.71,13.24,13.24,0,0,1-.88-1.15c.43.09.86.16,1.3.23.49.58,1,1.16,1.46,1.75.27.34.53.7.8,1Zm1.72.06c-.42-.55-.92-1.07-1.37-1.57s-.75-.79-1.12-1.18a15.85,15.85,0,0,0,2.37.24l1.3,1.7.72,1C203.27,173.95,202.63,173.9,202,173.87Zm3.74.47c-.3-.07-.6-.13-.9-.18-.39-.54-.87-1-1.29-1.55l-1.08-1.29a4.1,4.1,0,0,0,.73-.15.37.37,0,0,0,.18-.12.47.47,0,0,0,.48-.18c.35.47.7.94,1,1.42s.81,1.3,1.27,1.89c0,.16,0,.31-.07.47A.48.48,0,0,0,205.73,174.34Zm1-3.75c-.15.92-.29,1.84-.42,2.75-.32-.46-.69-.9-1-1.33s-.84-1.08-1.27-1.61c.23-.88.44-1.78.62-2.69A15.11,15.11,0,0,0,206.69,170.59Zm-2-3.43c.16-.81.3-1.62.43-2.43a22,22,0,0,0,2,3.32c-.11.62-.23,1.24-.33,1.86-.36-.43-.74-.85-1.07-1.29S205,167.65,204.72,167.16Zm2.57.05c-.66-1.09-1.37-2.16-2-3.26.15-1,.27-1.93.4-2.91a31.21,31.21,0,0,0,2.08,3.77C207.59,165.62,207.44,166.42,207.29,167.21Zm.55-2.88c-.71-1.25-1.45-2.48-2.12-3.75.13-1,.24-2.06.35-3.08.34.43.68.87,1,1.32.51.75.91,1.57,1.42,2.31C208.27,162.19,208.05,163.26,207.84,164.33Zm.77-3.85a14.27,14.27,0,0,0-2.48-3.49q.17-1.57.35-3.12a34.68,34.68,0,0,0,2.74,3.57C209,158.46,208.82,159.47,208.61,160.48Zm1.13-5.59c-.14.7-.28,1.39-.42,2.09a40.92,40.92,0,0,0-2.77-3.58c.08-.63.15-1.27.23-1.9s.16-1.16.24-1.74a20.42,20.42,0,0,0,2.94,4C209.88,154.13,209.81,154.51,209.74,154.89Zm-1.19-3.67c-.51-.68-1-1.38-1.45-2.09q.18-1.24.36-2.49a30.62,30.62,0,0,0,3.05,3.65c-.14.94-.28,1.88-.45,2.81C209.58,152.46,209,151.85,208.55,151.22Z"/></svg>